<svg width="304" height="220" viewBox="0 0 304 220" fill="none" xmlns="http://www.w3.org/2000/svg">
<path d="M320.65 126.612C355.833 126.612 384.354 98.2688 384.354 63.3059C384.354 28.343 355.833 0 320.65 0C285.467 0 256.945 28.343 256.945 63.3059C256.945 98.2688 285.467 126.612 320.65 126.612Z" fill="#58363D"/>
<path d="M220.424 250C237.309 250 250.997 236.386 250.997 219.593C250.997 202.8 237.309 189.187 220.424 189.187C203.539 189.187 189.851 202.8 189.851 219.593C189.851 236.386 203.539 250 220.424 250Z" fill="#58363D"/>
<path d="M91.0545 92.5828C110.729 92.5828 126.679 76.7226 126.679 57.1581C126.679 37.5936 110.729 21.7334 91.0545 21.7334C71.3799 21.7334 55.4304 37.5936 55.4304 57.1581C55.4304 76.7226 71.3799 92.5828 91.0545 92.5828Z" fill="#58363D"/>
<path d="M161.969 161.538C181.479 161.538 197.294 145.812 197.294 126.412C197.294 107.013 181.479 91.2867 161.969 91.2867C142.46 91.2867 126.644 107.013 126.644 126.412C126.644 145.812 142.46 161.538 161.969 161.538Z" fill="#675357"/>
<path d="M58.6863 212.249C83.5916 212.249 103.781 192.179 103.781 167.42C103.781 142.662 83.5916 122.591 58.6863 122.591C33.781 122.591 13.5912 142.662 13.5912 167.42C13.5912 192.179 33.781 212.249 58.6863 212.249Z" fill="#88606A"/>
<path d="M193.24 176.459C205.17 176.459 214.841 166.848 214.841 154.991C214.841 143.135 205.17 133.524 193.24 133.524C181.311 133.524 171.64 143.135 171.64 154.991C171.64 166.848 181.311 176.459 193.24 176.459Z" fill="#58363D" fill-opacity="0.5"/>
<path d="M159.876 24.8571C164.574 24.8571 168.383 21.0631 168.383 16.3831C168.383 11.703 164.574 7.90906 159.876 7.90906C155.177 7.90906 151.369 11.703 151.369 16.3831C151.369 21.0631 155.177 24.8571 159.876 24.8571Z" fill="#675357"/>
<path d="M244.052 154.659C252.935 154.659 260.136 147.503 260.136 138.675C260.136 129.847 252.935 122.69 244.052 122.69C235.169 122.69 227.968 129.847 227.968 138.675C227.968 147.503 235.169 154.659 244.052 154.659Z" fill="#675357"/>
<path d="M97.5339 224.345C109.72 224.345 119.6 214.526 119.6 202.413C119.6 190.3 109.72 180.48 97.5339 180.48C85.3474 180.48 75.4683 190.3 75.4683 202.413C75.4683 214.526 85.3474 224.345 97.5339 224.345Z" fill="#58363D" fill-opacity="0.5"/>
<path d="M28.6787 246.079C44.5175 246.079 57.3574 233.313 57.3574 217.566C57.3574 201.819 44.5175 189.054 28.6787 189.054C12.8399 189.054 0 201.819 0 217.566C0 233.313 12.8399 246.079 28.6787 246.079Z" fill="#58363D"/>
</svg>
