<svg width="260" height="313" viewBox="0 0 260 313" fill="none" xmlns="http://www.w3.org/2000/svg">
<g clip-path="url(#clip0_306_858)" filter="url(#filter0_d_306_858)">
<path d="M231.686 123.601L220.366 123.351L209.386 116.806L203.11 107.112L231.686 123.601Z" fill="#BAC3C6"/>
<path d="M216.892 119.621L231.686 123.601V229.342L200.934 247.084L216.892 119.621Z" fill="#9DA5A6"/>
<path d="M196.491 249.693L218.236 237.145V58.6922L196.491 71.2405V249.693Z" fill="#9DA5A6"/>
<path d="M108.71 199.039L196.491 249.693V71.2405L115.318 24.3983C112.383 22.7033 108.71 24.8201 108.71 28.21V199.039Z" fill="url(#paint0_linear_306_858)"/>
<path d="M196.491 71.2405L218.236 58.6922L130.455 8.03827L108.71 20.5865L196.491 71.2405Z" fill="url(#paint1_linear_306_858)"/>
<path opacity="0.3" d="M160.144 93.6227L189.341 110.471V109.491L160.144 92.6424V93.6227ZM160.144 97.2079L189.341 114.056V115.036L160.144 98.1882V97.2079ZM160.144 101.773L189.341 118.622V119.602L160.144 102.754V101.773ZM160.144 106.339L189.341 123.187V124.167L160.144 107.319V106.339ZM160.144 110.904L189.341 127.753V128.733L160.144 111.885V110.904ZM160.144 115.47L189.341 132.318V133.298L160.144 116.45V115.47ZM160.144 120.035L189.341 136.884V137.864L160.144 121.016V120.035ZM160.144 124.601L189.341 141.449V142.429L160.144 125.581V124.601ZM160.144 129.17L189.341 146.018V146.999L160.144 130.151V129.17ZM160.144 133.736L189.341 150.584V151.564L160.144 134.716V133.736ZM116.103 68.2098L145.3 85.058V84.0777L116.103 67.2296V68.2098ZM116.103 71.795L145.3 88.6432V89.6235L116.103 72.7753V71.795ZM116.103 76.3605L145.3 93.2087V94.189L116.103 77.3408V76.3605ZM116.103 80.926L145.3 97.7742V98.7545L116.103 81.9063V80.926ZM116.103 85.4915L145.3 102.34V103.32L116.103 86.4718V85.4915ZM116.103 90.057L145.3 106.905V107.885L116.103 91.0373V90.057ZM116.103 94.6225L145.3 111.471V112.451L116.103 95.6028V94.6225ZM116.103 99.1919L145.3 116.04V117.02L116.103 100.172V99.1919ZM116.103 103.757L145.3 120.606V121.586L116.103 104.738V103.757ZM116.103 108.323L145.3 125.171V126.151L116.103 109.303V108.323Z" fill="#9DA5A6"/>
<path d="M193.748 225.479L233.397 202.57L233.405 274.09L193.752 297L193.748 225.479Z" fill="#9DA5A6"/>
<path d="M193.748 225.479L193.752 297L186.484 292.806L186.48 221.285L193.748 225.479Z" fill="#BAC3C6"/>
<path d="M35.5704 134.2L75.2194 111.295L75.2272 182.812L35.5782 205.721L35.5704 134.2Z" fill="#9DA5A6"/>
<path d="M35.5704 134.201L35.5782 205.721L28.3064 201.527L28.3025 130.006L35.5704 134.201Z" fill="#BAC3C6"/>
<path d="M54.9241 93.5407C56.6512 92.537 59.0425 92.6776 61.6801 94.1968L240.532 197.407L235.953 200.066L57.0966 96.8564C54.463 95.3372 52.0716 95.1966 50.3406 96.2003L54.9241 93.5407Z" fill="url(#paint2_linear_306_858)"/>
<path d="M240.532 197.407C242.017 198.262 243.424 199.469 244.674 200.89C246.163 202.581 247.429 204.585 248.355 206.678C249.398 209.037 250.008 211.513 250 213.794C249.992 216.789 248.933 218.895 247.234 219.883L242.654 222.542L235.957 200.066L240.532 197.407Z" fill="#A4ABAD"/>
<path d="M235.957 200.066L57.1005 96.8564C51.8645 93.8336 47.5898 96.2706 47.5741 102.285C47.5585 108.323 51.802 115.65 57.0419 118.672L235.894 221.882C241.13 224.905 245.405 222.491 245.42 216.454C245.44 210.439 241.193 203.089 235.957 200.066Z" fill="#BAC3C6"/>
<path d="M58.1125 100.231C57.7335 100.012 57.3623 99.8324 56.995 99.6722C56.8817 99.6215 56.7723 99.5824 56.659 99.5395C56.3972 99.4379 56.1432 99.3481 55.8892 99.2739C55.8228 99.2544 55.7563 99.2231 55.6938 99.2036C55.6469 99.1919 55.6039 99.1919 55.5571 99.1802C55.2366 99.1021 54.9201 99.0435 54.6154 99.0083C54.5802 99.0044 54.5411 98.9927 54.502 98.9927C54.1621 98.9615 53.8378 98.9654 53.5174 98.9927C53.4275 99.0005 53.3415 99.0161 53.2517 99.0278C53.0172 99.0591 52.7906 99.102 52.5717 99.1645C52.4858 99.188 52.3998 99.2114 52.3139 99.2387C52.0286 99.3364 51.7551 99.4496 51.4972 99.598L20.4603 117.696C20.7181 117.548 20.9917 117.434 21.2769 117.337C21.359 117.309 21.4449 117.286 21.5309 117.262C21.7497 117.2 21.9803 117.157 22.2147 117.126C22.3007 117.114 22.3866 117.098 22.4765 117.095C22.793 117.071 23.1212 117.067 23.4612 117.095C23.4963 117.098 23.5354 117.106 23.5706 117.11C23.8754 117.141 24.1919 117.204 24.5123 117.282C24.6217 117.309 24.735 117.341 24.8483 117.376C25.1023 117.45 25.3602 117.54 25.622 117.641C25.7314 117.684 25.8408 117.723 25.9541 117.774C26.3214 117.934 26.6926 118.118 27.0756 118.336L201.149 218.68L232.182 200.582L58.1125 100.231Z" fill="#4B4947"/>
<path d="M201.141 220.972L27.0717 120.617C23.047 118.294 19.7569 120.168 19.7452 124.792C19.7335 129.432 23.0001 135.087 27.0248 137.411L201.094 237.762C205.119 240.086 208.409 238.211 208.421 233.575C208.432 228.951 205.166 223.292 201.141 220.972Z" fill="#8E9699"/>
<path d="M240.868 219.859C240.989 219.547 241.103 219.23 241.185 218.875C241.239 218.633 241.271 218.371 241.306 218.109C241.341 217.867 241.404 217.653 241.419 217.395C241.435 217.145 241.447 216.887 241.447 216.625C241.447 215.969 241.38 215.294 241.282 214.61C241.259 214.442 241.232 214.278 241.204 214.11C241.177 213.942 241.161 213.778 241.126 213.614C241.056 213.274 240.946 212.935 240.853 212.595C240.786 212.349 240.735 212.111 240.657 211.865C240.462 211.24 240.231 210.623 239.97 210.006C239.93 209.908 239.899 209.81 239.856 209.713C239.852 209.701 239.848 209.685 239.841 209.674C239.548 209.014 239.211 208.369 238.856 207.737C238.762 207.573 238.668 207.412 238.571 207.248C238.231 206.674 237.867 206.12 237.48 205.581C237.43 205.51 237.383 205.432 237.328 205.362C236.973 204.886 236.605 204.421 236.218 203.983C236.144 203.901 236.062 203.831 235.988 203.753C235.753 203.495 235.511 203.265 235.269 203.027C234.956 202.718 234.648 202.417 234.319 202.14C234.061 201.921 233.796 201.726 233.53 201.527C233.319 201.371 233.12 201.187 232.909 201.043C232.667 200.882 232.42 200.73 232.174 200.586L201.141 218.684C201.606 218.953 202.052 219.289 202.497 219.625C202.763 219.824 203.028 220.019 203.286 220.238C203.611 220.515 203.923 220.816 204.232 221.125C204.474 221.363 204.72 221.597 204.951 221.851C205.416 222.363 205.869 222.894 206.287 223.46C206.342 223.534 206.389 223.612 206.444 223.686C206.83 224.222 207.19 224.776 207.53 225.346C207.628 225.51 207.725 225.674 207.819 225.838C208.182 226.483 208.522 227.139 208.819 227.811C208.862 227.912 208.894 228.014 208.937 228.115C209.194 228.725 209.425 229.342 209.62 229.963C209.698 230.209 209.749 230.451 209.816 230.697C209.952 231.205 210.077 231.708 210.167 232.208C210.199 232.376 210.222 232.544 210.246 232.712C210.343 233.392 210.41 234.067 210.41 234.723C210.41 235.258 210.335 235.731 210.269 236.207C210.234 236.465 210.203 236.731 210.148 236.973C210.066 237.328 209.952 237.645 209.831 237.957C209.753 238.156 209.691 238.371 209.601 238.555C209.444 238.871 209.249 239.14 209.05 239.402C208.952 239.531 208.874 239.683 208.768 239.797C208.444 240.152 208.089 240.453 207.686 240.687L238.719 222.589C239.118 222.355 239.477 222.054 239.802 221.699C239.907 221.581 239.985 221.429 240.083 221.3C240.282 221.035 240.474 220.769 240.63 220.453C240.731 220.277 240.794 220.062 240.868 219.859Z" fill="url(#paint3_linear_306_858)"/>
<path d="M210.414 234.723C210.398 240.621 206.209 243.007 201.086 240.05L27.017 139.699C21.8943 136.743 17.7329 129.537 17.7485 123.64C17.7641 117.758 21.9529 115.372 27.0756 118.329L201.149 218.68C206.268 221.636 210.433 228.842 210.414 234.723ZM208.421 233.571C208.432 228.947 205.166 223.292 201.141 220.968L27.0717 120.617C23.047 118.294 19.7569 120.168 19.7452 124.792C19.7335 129.428 23.0001 135.087 27.0248 137.411L201.094 237.762C205.119 240.086 208.409 238.211 208.421 233.571Z" fill="#201D1D"/>
<path opacity="0.2" d="M94.9755 121.484L94.3738 121.137L63.1766 139.141L63.7784 139.489L94.9755 121.484ZM100.532 160.676L99.9302 160.328L131.127 142.324L131.729 142.671L100.532 160.676ZM72.9648 144.784L72.3631 144.437L103.56 126.433L104.162 126.78L72.9648 144.784ZM91.3455 155.376L90.7437 155.028L121.941 137.024L122.543 137.372L91.3455 155.376ZM82.1551 150.08L81.5534 149.733L112.751 131.728L113.352 132.076L82.1551 150.08ZM238.981 207.975L207.874 225.928C207.858 225.897 207.842 225.866 207.827 225.835C207.745 225.69 207.659 225.546 207.577 225.405L238.692 207.448C238.747 207.541 238.805 207.639 238.86 207.737C238.903 207.815 238.938 207.897 238.981 207.975ZM232.78 200.957L201.563 218.969C201.422 218.875 201.29 218.762 201.145 218.68L201 218.598L232.198 200.593C232.397 200.707 232.588 200.832 232.78 200.957ZM26.3762 117.977L57.585 99.9691C57.7609 100.059 57.9367 100.129 58.1165 100.235L58.222 100.297L27.0209 118.301C26.8021 118.176 26.5872 118.079 26.3762 117.977ZM45.4016 128.889L44.7998 128.541L75.997 110.537L76.5987 110.885L45.4016 128.889ZM66.8066 105.245L67.4084 105.593L36.2112 123.597L35.6095 123.25L66.8066 105.245ZM54.588 134.189L53.9863 133.841L85.1834 115.837L85.7852 116.185L54.588 134.189ZM146.476 187.163L145.874 186.815L177.071 168.811L177.673 169.158L146.476 187.163ZM109.722 165.971L109.12 165.624L140.318 147.62L140.919 147.967L109.722 165.971ZM164.853 197.754L164.251 197.407L195.448 179.402L196.05 179.75L164.853 197.754ZM174.039 203.054L173.437 202.706L204.634 184.702L205.236 185.05L174.039 203.054ZM241.431 217.164L211.746 234.294L211.144 233.946L241.439 216.465C241.439 216.52 241.45 216.575 241.45 216.629C241.45 216.809 241.439 216.985 241.431 217.164ZM192.42 213.646L191.818 213.298L223.015 195.294L223.617 195.641L192.42 213.646ZM183.229 208.35L182.628 208.002L213.825 189.998L214.426 190.346L183.229 208.35ZM128.099 176.567L127.497 176.219L158.694 158.215L159.296 158.563L128.099 176.567ZM118.909 171.267L118.307 170.92L149.504 152.915L150.106 153.263L118.909 171.267ZM155.662 192.458L155.06 192.111L186.258 174.107L186.859 174.454L155.662 192.458ZM137.285 181.863L136.684 181.515L167.881 163.511L168.483 163.859L137.285 181.863Z" fill="#272323"/>
<path d="M17.3499 115.224C19.077 114.22 21.4684 114.361 24.106 115.88L202.962 219.09L198.382 221.749L19.5264 118.54C16.8928 117.02 14.5014 116.88 12.7704 117.883L17.3499 115.224Z" fill="url(#paint4_linear_306_858)"/>
<path d="M202.962 219.09C204.447 219.945 205.854 221.152 207.104 222.573C208.593 224.265 209.859 226.268 210.785 228.361C211.828 230.72 212.434 233.192 212.43 235.473C212.422 238.469 211.363 240.574 209.663 241.562L205.084 244.221L198.386 221.745L202.962 219.09Z" fill="#A4ABAD"/>
<path d="M198.382 221.749C203.618 224.772 207.866 232.122 207.846 238.137C207.831 244.175 203.556 246.584 198.32 243.565L19.4639 140.356C14.2279 137.333 9.98048 130.006 9.99611 123.968C10.0117 117.954 14.2865 115.521 19.5225 118.543L198.382 221.749Z" fill="#BAC3C6"/>
<path d="M199.731 230.302C199.168 229.607 198.554 229.076 197.949 228.725C196.71 228.01 195.499 228.049 194.827 228.982C193.838 230.392 194.416 233.251 196.124 235.368C196.691 236.071 197.308 236.606 197.914 236.957C199.156 237.676 200.364 237.625 201.028 236.688C202.028 235.297 201.438 232.435 199.731 230.302Z" fill="#3D3A39"/>
<path d="M22.2382 127.881C21.6755 127.186 21.062 126.655 20.4564 126.304C19.2177 125.589 18.0064 125.628 17.3343 126.561C16.3457 127.971 16.924 130.83 18.6316 132.947C19.1982 133.65 19.8156 134.185 20.4212 134.536C21.6638 135.251 22.8712 135.204 23.5355 134.267C24.5358 132.877 23.9457 130.014 22.2382 127.881Z" fill="#3D3A39"/>
<path d="M103.611 145.968C103.533 146.534 103.201 147.592 101.849 148.42C100.895 149.006 98.4375 149.776 95.968 148.487C94.616 147.702 94.2175 146.694 94.112 146.015C94.112 142.629 103.615 142.605 103.611 145.968Z" fill="#202E23"/>
<path d="M94.3112 126.561H103.392C103.412 126.71 103.431 126.862 103.439 127.011L103.447 145.675C103.447 146.331 103.001 146.96 102.189 147.448C101.306 147.975 100.118 148.264 98.8439 148.264C97.6326 148.264 96.4877 147.999 95.6202 147.51C94.7528 147.022 94.2722 146.378 94.2683 145.698L94.2604 127.034C94.2604 126.948 94.2682 126.862 94.2878 126.761C94.2917 126.694 94.3034 126.628 94.3112 126.561Z" fill="url(#paint5_linear_306_858)"/>
<path d="M95.6085 124.995C93.8189 126.026 93.8189 127.702 95.6085 128.733C97.3981 129.764 100.297 129.764 102.083 128.733C103.869 127.702 103.873 126.026 102.083 124.995C100.297 123.964 97.3981 123.964 95.6085 124.995Z" fill="#502121"/>
<path opacity="0.9" d="M94.069 127.038C94.069 126.94 94.0807 126.847 94.0963 126.749C94.151 126.007 94.3464 125.378 94.6317 124.863C95.1709 123.835 96.0501 123.082 97.066 122.679V115.65C96.9957 115.532 96.9527 115.411 96.9527 115.29L96.9488 114.548C96.9488 114.833 97.1402 115.115 97.5193 115.329C98.2656 115.747 99.4613 115.735 100.184 115.302C100.54 115.087 100.719 114.814 100.719 114.536L100.723 115.279C100.723 115.404 100.684 115.525 100.61 115.642V122.695C101.274 122.968 101.907 123.394 102.462 124.007C103.091 124.702 103.451 125.526 103.572 126.452C103.599 126.632 103.623 126.815 103.631 127.007L103.638 145.671C103.642 146.366 103.189 147.065 102.286 147.608C100.446 148.709 97.4177 148.737 95.5265 147.678C94.5652 147.139 94.0807 146.421 94.0768 145.702L94.069 127.038Z" fill="url(#paint6_linear_306_858)"/>
<path opacity="0.3" d="M94.069 127.038C94.069 126.94 94.0807 126.847 94.0963 126.749C94.151 126.007 94.3464 125.378 94.6316 124.863C95.1709 123.835 96.05 123.082 97.066 122.679V115.329C97.066 115.595 97.2457 115.864 97.6052 116.064C98.3086 116.458 99.43 116.446 100.114 116.04C100.45 115.841 100.618 115.579 100.614 115.322V122.699C101.278 122.972 101.911 123.398 102.466 124.011C103.095 124.706 103.455 125.53 103.576 126.456C103.603 126.636 103.627 126.819 103.634 127.011L103.642 145.675C103.646 146.37 103.193 147.069 102.29 147.612C100.45 148.713 97.4216 148.741 95.5304 147.682C94.5691 147.143 94.0846 146.425 94.0807 145.706L94.069 127.038Z" fill="url(#paint7_radial_306_858)"/>
<g opacity="0.3">
<path d="M94.3112 126.561H103.392C103.412 126.71 103.431 126.862 103.439 127.011L103.447 145.675C103.447 146.331 103.001 146.96 102.189 147.448C101.306 147.975 100.118 148.264 98.8439 148.264C97.6326 148.264 96.4877 147.999 95.6202 147.51C94.7528 147.022 94.2722 146.378 94.2683 145.698L94.2604 127.034C94.2604 126.948 94.2682 126.862 94.2878 126.761C94.2917 126.694 94.3034 126.628 94.3112 126.561Z" fill="url(#paint8_linear_306_858)"/>
<path d="M95.6084 124.995C93.8188 126.026 93.8188 127.702 95.6084 128.733C97.398 129.764 100.297 129.764 102.083 128.733C103.869 127.702 103.873 126.026 102.083 124.995C100.297 123.964 97.398 123.964 95.6084 124.995Z" fill="#502121"/>
</g>
<path opacity="0.9" d="M97.4839 113.787C98.2107 113.353 99.4025 113.341 100.149 113.759C100.895 114.177 100.911 114.868 100.188 115.302C99.4611 115.735 98.2693 115.747 97.523 115.329C96.7728 114.911 96.7572 114.22 97.4839 113.787Z" fill="#2F452E"/>
<path opacity="0.8" d="M97.8944 114.017C98.3985 113.716 99.2268 113.709 99.7465 113.998C100.266 114.287 100.278 114.767 99.7739 115.072C99.2698 115.372 98.4414 115.38 97.9217 115.091C97.4021 114.802 97.3903 114.318 97.8944 114.017Z" fill="#2A372B"/>
<path opacity="0.3" d="M100.383 115.161C100.606 114.974 100.719 114.759 100.719 114.54L100.723 115.282C100.723 115.501 100.606 115.716 100.383 115.903V115.161Z" fill="#2A342B"/>
<path opacity="0.2" d="M98.207 116.314C97.9569 116.263 97.7225 116.185 97.5232 116.071C97.3513 115.978 97.2262 115.864 97.1324 115.747V115.009C97.2262 115.126 97.3513 115.236 97.5232 115.329C97.7264 115.443 97.9608 115.521 98.2109 115.571V116.314H98.207Z" fill="url(#paint9_linear_306_858)"/>
<path opacity="0.6" d="M94.9286 146.772C95.4679 147.358 96.5072 147.667 96.5072 147.667V129.233C96.5072 127.682 94.9286 126.788 94.9286 128.249V146.772Z" fill="url(#paint10_linear_306_858)"/>
<path d="M123.816 157.626C123.738 158.192 123.406 159.25 122.054 160.078C121.101 160.664 118.643 161.433 116.173 160.145C114.821 159.36 114.423 158.352 114.317 157.669C114.317 154.29 123.82 154.263 123.816 157.626Z" fill="#202E23"/>
<path d="M114.517 138.219H123.598C123.617 138.368 123.637 138.52 123.645 138.668L123.652 157.333C123.652 157.989 123.207 158.618 122.394 159.106C121.511 159.633 120.323 159.922 119.049 159.922C117.838 159.922 116.693 159.656 115.826 159.168C114.958 158.68 114.478 158.036 114.474 157.356L114.466 138.692C114.466 138.606 114.474 138.52 114.493 138.418C114.497 138.356 114.509 138.29 114.517 138.219Z" fill="url(#paint11_linear_306_858)"/>
<path d="M119.053 141.168C116.524 141.168 114.474 139.984 114.474 138.524C114.474 137.064 116.524 135.88 119.053 135.88C121.582 135.88 123.633 137.064 123.633 138.524C123.633 139.984 121.582 141.168 119.053 141.168Z" fill="#502121"/>
<path opacity="0.9" d="M114.274 138.7C114.274 138.602 114.286 138.508 114.302 138.411C114.357 137.669 114.552 137.04 114.837 136.524C115.376 135.497 116.256 134.743 117.271 134.341V127.311C117.201 127.194 117.158 127.073 117.158 126.952L117.154 126.21C117.154 126.495 117.346 126.776 117.725 126.991C118.471 127.409 119.667 127.397 120.39 126.964C120.745 126.749 120.925 126.476 120.925 126.202L120.929 126.944C120.929 127.069 120.89 127.19 120.816 127.307V134.361C121.48 134.634 122.113 135.06 122.668 135.673C123.293 136.368 123.656 137.192 123.777 138.118C123.805 138.297 123.828 138.481 123.836 138.672L123.844 157.337C123.848 158.032 123.394 158.731 122.492 159.274C120.651 160.375 117.623 160.402 115.732 159.344C114.771 158.805 114.286 158.086 114.282 157.368L114.274 138.7Z" fill="url(#paint12_linear_306_858)"/>
<path opacity="0.3" d="M114.274 138.7C114.274 138.602 114.286 138.508 114.302 138.411C114.357 137.669 114.552 137.04 114.837 136.524C115.376 135.497 116.256 134.743 117.271 134.341V126.995C117.271 127.261 117.451 127.53 117.807 127.729C118.51 128.124 119.632 128.112 120.315 127.702C120.651 127.503 120.819 127.241 120.816 126.983V134.361C121.48 134.634 122.113 135.06 122.668 135.673C123.293 136.368 123.656 137.192 123.777 138.118C123.805 138.297 123.828 138.481 123.836 138.672L123.844 157.337C123.848 158.032 123.394 158.731 122.492 159.274C120.651 160.375 117.623 160.402 115.732 159.344C114.771 158.805 114.286 158.086 114.282 157.368L114.274 138.7Z" fill="url(#paint13_radial_306_858)"/>
<g opacity="0.3">
<path d="M114.517 138.219H123.598C123.617 138.368 123.637 138.52 123.645 138.668L123.652 157.333C123.652 157.989 123.207 158.617 122.394 159.106C121.511 159.633 120.323 159.922 119.049 159.922C117.838 159.922 116.693 159.656 115.826 159.168C114.958 158.68 114.478 158.036 114.474 157.356L114.466 138.692C114.466 138.606 114.474 138.52 114.493 138.418C114.497 138.356 114.509 138.29 114.517 138.219Z" fill="url(#paint14_linear_306_858)"/>
<path d="M119.053 141.168C116.524 141.168 114.474 139.984 114.474 138.524C114.474 137.064 116.524 135.88 119.053 135.88C121.582 135.88 123.633 137.064 123.633 138.524C123.633 139.984 121.582 141.168 119.053 141.168Z" fill="#502121"/>
</g>
<path opacity="0.9" d="M117.689 125.448C118.416 125.015 119.608 125.003 120.354 125.421C121.101 125.839 121.116 126.53 120.393 126.964C119.667 127.397 118.475 127.409 117.728 126.991C116.978 126.573 116.963 125.882 117.689 125.448Z" fill="#2F452E"/>
<path opacity="0.8" d="M118.1 125.679C118.604 125.378 119.432 125.37 119.952 125.659C120.472 125.948 120.483 126.429 119.979 126.733C119.475 127.034 118.647 127.042 118.127 126.753C117.608 126.46 117.596 125.98 118.1 125.679Z" fill="#2A372B"/>
<path opacity="0.3" d="M120.589 126.819C120.812 126.632 120.925 126.417 120.925 126.198L120.929 126.94C120.929 127.159 120.812 127.374 120.589 127.561V126.819Z" fill="#2A342B"/>
<path opacity="0.2" d="M118.412 127.975C118.162 127.924 117.928 127.846 117.729 127.733C117.557 127.639 117.432 127.526 117.338 127.409V126.671C117.432 126.788 117.557 126.897 117.729 126.991C117.932 127.104 118.166 127.182 118.416 127.233V127.975H118.412Z" fill="url(#paint15_linear_306_858)"/>
<path opacity="0.6" d="M115.134 158.434C115.673 159.02 116.713 159.328 116.713 159.328V140.895C116.713 139.344 115.134 138.45 115.134 139.91V158.434Z" fill="url(#paint16_linear_306_858)"/>
<path d="M61.7856 121.832C61.7074 122.398 61.3753 123.457 60.0233 124.285C59.0699 124.87 56.6121 125.64 54.1426 124.351C52.7906 123.566 52.3921 122.558 52.2866 121.875C52.2866 118.493 61.7895 118.465 61.7856 121.832Z" fill="#202E23"/>
<path d="M52.4858 102.426H61.5668C61.5863 102.574 61.6058 102.726 61.6136 102.875L61.6215 121.539C61.6215 122.195 61.176 122.824 60.3633 123.312C59.4802 123.839 58.2923 124.132 57.0185 124.132C55.8072 124.132 54.6623 123.867 53.7948 123.379C52.9235 122.89 52.4468 122.246 52.4428 121.566L52.435 102.902C52.435 102.816 52.4428 102.73 52.4624 102.629C52.4663 102.558 52.478 102.492 52.4858 102.426Z" fill="url(#paint17_linear_306_858)"/>
<path d="M57.0224 105.374C54.4932 105.374 52.4428 104.19 52.4428 102.73C52.4428 101.27 54.4932 100.086 57.0224 100.086C59.5516 100.086 61.6019 101.27 61.6019 102.73C61.6019 104.19 59.5516 105.374 57.0224 105.374Z" fill="#502121"/>
<path opacity="0.9" d="M52.2436 102.902C52.2436 102.804 52.2553 102.711 52.2709 102.613C52.3256 101.871 52.521 101.242 52.8062 100.727C53.3455 99.6996 54.2246 98.9459 55.2406 98.5436V91.5138C55.1703 91.3966 55.1273 91.2755 55.1273 91.1545V90.4124C55.1273 90.6975 55.3187 90.9787 55.6978 91.1935C56.4441 91.6114 57.6398 91.5997 58.3626 91.1662C58.7182 90.9514 58.898 90.678 58.898 90.4007L58.9019 91.1427C58.9019 91.2677 58.8628 91.3888 58.7886 91.5099V98.5631C59.4528 98.8365 60.0858 99.2622 60.6407 99.8754C61.2698 100.571 61.6293 101.395 61.7504 102.32C61.7778 102.5 61.8012 102.683 61.809 102.875L61.8168 121.539C61.8168 122.234 61.3675 122.933 60.4649 123.476C58.6244 124.577 55.5962 124.605 53.705 123.543C52.7437 123.004 52.2592 122.285 52.2553 121.566L52.2436 102.902Z" fill="url(#paint18_linear_306_858)"/>
<path opacity="0.3" d="M52.2436 102.902C52.2436 102.805 52.2553 102.711 52.2709 102.613C52.3256 101.871 52.521 101.242 52.8062 100.727C53.3455 99.6996 54.2246 98.9459 55.2406 98.5436V91.1935C55.2406 91.4591 55.4203 91.7286 55.7759 91.9278C56.4792 92.3222 57.6007 92.3105 58.2845 91.9043C58.6205 91.7052 58.7886 91.4435 58.7846 91.1857V98.5632C59.4489 98.8365 60.0819 99.2622 60.6368 99.8754C61.2659 100.571 61.6254 101.395 61.7465 102.32C61.7738 102.5 61.7973 102.683 61.8051 102.875L61.8129 121.539C61.8129 122.234 61.3636 122.933 60.4609 123.476C58.6205 124.577 55.5922 124.605 53.701 123.543C52.7398 123.004 52.2553 122.285 52.2514 121.566L52.2436 102.902Z" fill="url(#paint19_radial_306_858)"/>
<g opacity="0.3">
<path d="M52.4858 102.426H61.5668C61.5863 102.574 61.6058 102.726 61.6136 102.875L61.6215 121.539C61.6215 122.195 61.176 122.824 60.3633 123.312C59.4802 123.839 58.2923 124.132 57.0185 124.132C55.8072 124.132 54.6623 123.867 53.7948 123.378C52.9235 122.89 52.4468 122.246 52.4428 121.566L52.435 102.902C52.435 102.816 52.4428 102.73 52.4624 102.629C52.4663 102.558 52.478 102.492 52.4858 102.426Z" fill="url(#paint20_linear_306_858)"/>
<path d="M57.0223 105.374C54.4931 105.374 52.4428 104.19 52.4428 102.73C52.4428 101.27 54.4931 100.086 57.0223 100.086C59.5515 100.086 61.6019 101.27 61.6019 102.73C61.6019 104.19 59.5515 105.374 57.0223 105.374Z" fill="#502121"/>
</g>
<path opacity="0.9" d="M55.6585 89.6509C56.3853 89.2173 57.5771 89.2056 58.3234 89.6235C59.0697 90.0414 59.0854 90.7327 58.3625 91.1662C57.6357 91.5997 56.4439 91.6114 55.6976 91.1935C54.9474 90.7756 54.9318 90.0844 55.6585 89.6509Z" fill="#2F452E"/>
<path opacity="0.8" d="M56.0689 89.8813C56.573 89.5806 57.4014 89.5728 57.9211 89.8618C58.4408 90.1508 58.4525 90.6312 57.9484 90.9358C57.4444 91.2365 56.616 91.2443 56.0963 90.9553C55.5766 90.6624 55.5649 90.182 56.0689 89.8813Z" fill="#2A372B"/>
<path opacity="0.3" d="M58.558 91.0256C58.7807 90.8381 58.898 90.6233 58.894 90.4046L58.8979 91.1466C58.8979 91.3653 58.7807 91.5801 58.558 91.7676V91.0256Z" fill="#2A342B"/>
<path opacity="0.2" d="M56.3815 92.1777C56.1314 92.1269 55.897 92.0488 55.6977 91.9356C55.5258 91.8418 55.4008 91.7286 55.307 91.6114V90.8733C55.4008 90.9905 55.5258 91.0998 55.6977 91.1935C55.9009 91.3068 56.1354 91.3849 56.3854 91.4357V92.1777H56.3815Z" fill="url(#paint21_linear_306_858)"/>
<path opacity="0.6" d="M53.1032 122.636C53.6424 123.222 54.6818 123.531 54.6818 123.531V105.097C54.6818 103.547 53.1032 102.652 53.1032 104.113V122.636Z" fill="url(#paint22_linear_306_858)"/>
<path d="M82.1239 133.568C82.0457 134.134 81.7136 135.193 80.3616 136.021C79.4082 136.606 76.9504 137.376 74.4809 136.087C73.1289 135.302 72.7303 134.294 72.6248 133.611C72.6248 130.229 82.1278 130.205 82.1239 133.568Z" fill="#202E23"/>
<path d="M72.8241 114.162H81.905C81.9246 114.31 81.9441 114.462 81.9519 114.611L81.9597 133.275C81.9597 133.931 81.5143 134.56 80.7015 135.048C79.8185 135.575 78.6306 135.864 77.3568 135.864C76.1455 135.864 75.0006 135.599 74.1331 135.111C73.2657 134.622 72.785 133.978 72.7811 133.298L72.7733 114.634C72.7733 114.548 72.7811 114.462 72.8007 114.361C72.8046 114.294 72.8163 114.228 72.8241 114.162Z" fill="url(#paint23_linear_306_858)"/>
<path d="M77.3607 117.11C74.8315 117.11 72.7811 115.926 72.7811 114.466C72.7811 113.006 74.8315 111.822 77.3607 111.822C79.8899 111.822 81.9402 113.006 81.9402 114.466C81.9402 115.926 79.8899 117.11 77.3607 117.11Z" fill="#502121"/>
<path opacity="0.9" d="M72.5819 114.638C72.5819 114.54 72.5936 114.447 72.6092 114.349C72.6639 113.607 72.8593 112.978 73.1445 112.463C73.6838 111.436 74.5629 110.682 75.5789 110.28V103.25C75.5085 103.133 75.4656 103.011 75.4656 102.89L75.4617 102.148C75.4617 102.433 75.6531 102.715 76.0321 102.929C76.7785 103.347 77.9741 103.336 78.697 102.902C79.0526 102.687 79.2323 102.414 79.2323 102.141L79.2363 102.883C79.2363 103.008 79.1933 103.129 79.1229 103.246V110.299C79.7872 110.572 80.4202 110.998 80.9751 111.611C81.6042 112.307 81.9637 113.131 82.0848 114.056C82.1121 114.236 82.1356 114.419 82.1434 114.611L82.1512 133.275C82.1551 133.97 81.7058 134.669 80.7992 135.212C78.9588 136.313 75.9305 136.341 74.0393 135.282C73.0781 134.743 72.5936 134.025 72.5897 133.306L72.5819 114.638Z" fill="url(#paint24_linear_306_858)"/>
<path opacity="0.3" d="M72.5819 114.638C72.5819 114.54 72.5936 114.447 72.6092 114.349C72.6639 113.607 72.8593 112.978 73.1445 112.463C73.6838 111.436 74.5629 110.682 75.5789 110.28V102.933C75.5789 103.199 75.7586 103.468 76.1142 103.668C76.8175 104.062 77.939 104.05 78.6228 103.64C78.9588 103.441 79.1268 103.179 79.1229 102.922V110.299C79.7872 110.573 80.4202 110.998 80.9751 111.611C81.6042 112.307 81.9637 113.131 82.0848 114.056C82.1121 114.236 82.1356 114.419 82.1434 114.611L82.1512 133.275C82.1512 133.97 81.7019 134.669 80.7992 135.212C78.9588 136.313 75.9305 136.341 74.0393 135.282C73.0781 134.743 72.5936 134.025 72.5897 133.306L72.5819 114.638Z" fill="url(#paint25_radial_306_858)"/>
<g opacity="0.3">
<path d="M72.8241 114.162H81.905C81.9246 114.31 81.9441 114.462 81.9519 114.611L81.9597 133.275C81.9597 133.931 81.5143 134.56 80.7015 135.048C79.8185 135.575 78.6306 135.864 77.3568 135.864C76.1455 135.864 75.0006 135.599 74.1331 135.11C73.2657 134.622 72.785 133.978 72.7811 133.298L72.7733 114.634C72.7733 114.548 72.7811 114.462 72.8007 114.361C72.8046 114.294 72.8163 114.228 72.8241 114.162Z" fill="url(#paint26_linear_306_858)"/>
<path d="M77.3606 117.11C74.8314 117.11 72.781 115.926 72.781 114.466C72.781 113.006 74.8314 111.822 77.3606 111.822C79.8898 111.822 81.9401 113.006 81.9401 114.466C81.9401 115.926 79.8898 117.11 77.3606 117.11Z" fill="#502121"/>
</g>
<path opacity="0.9" d="M75.997 101.387C76.7238 100.953 77.9155 100.942 78.6658 101.359C79.4121 101.777 79.4277 102.469 78.7048 102.902C77.9781 103.336 76.7863 103.347 76.0361 102.929C75.2858 102.512 75.2702 101.82 75.997 101.387Z" fill="#2F452E"/>
<path opacity="0.8" d="M76.4073 101.621C76.9113 101.32 77.7397 101.313 78.2594 101.602C78.7791 101.891 78.7908 102.371 78.2868 102.676C77.7827 102.976 76.9543 102.984 76.4346 102.695C75.9149 102.402 75.9032 101.922 76.4073 101.621Z" fill="#2A372B"/>
<path opacity="0.3" d="M78.8963 102.762C79.119 102.574 79.2324 102.359 79.2324 102.141L79.2363 102.883C79.2363 103.101 79.119 103.316 78.8963 103.504V102.762Z" fill="#2A342B"/>
<path opacity="0.2" d="M76.7199 103.914C76.4698 103.863 76.2353 103.785 76.0361 103.672C75.8641 103.578 75.7391 103.465 75.6453 103.347V102.609C75.7391 102.726 75.8641 102.836 76.0361 102.929C76.2392 103.043 76.4737 103.121 76.7238 103.172V103.914H76.7199Z" fill="url(#paint27_linear_306_858)"/>
<path opacity="0.6" d="M73.4415 134.372C73.9807 134.958 75.0201 135.267 75.0201 135.267V116.833C75.0201 115.282 73.4415 114.388 73.4415 115.849V134.372Z" fill="url(#paint28_linear_306_858)"/>
<path d="M144.049 169.303C143.971 169.869 143.639 170.928 142.287 171.755C141.334 172.341 138.876 173.111 136.406 171.822C135.054 171.037 134.656 170.029 134.55 169.346C134.55 165.964 144.053 165.936 144.049 169.303Z" fill="#202E23"/>
<path d="M134.75 149.897H143.83C143.85 150.045 143.87 150.197 143.877 150.346L143.885 169.01C143.885 169.666 143.44 170.295 142.627 170.783C141.744 171.31 140.556 171.599 139.282 171.599C138.071 171.599 136.926 171.334 136.059 170.846C135.191 170.357 134.71 169.713 134.707 169.033L134.699 150.369C134.699 150.283 134.707 150.197 134.726 150.096C134.73 150.029 134.742 149.963 134.75 149.897Z" fill="url(#paint29_linear_306_858)"/>
<path d="M139.286 152.845C136.757 152.845 134.707 151.661 134.707 150.201C134.707 148.741 136.757 147.557 139.286 147.557C141.815 147.557 143.866 148.741 143.866 150.201C143.866 151.661 141.815 152.845 139.286 152.845Z" fill="#502121"/>
<path opacity="0.9" d="M134.507 150.373C134.507 150.275 134.519 150.182 134.535 150.084C134.589 149.342 134.785 148.713 135.07 148.198C135.609 147.171 136.488 146.417 137.504 146.015V138.985C137.434 138.868 137.391 138.746 137.391 138.625L137.387 137.883C137.387 138.168 137.579 138.45 137.958 138.664C138.704 139.082 139.9 139.071 140.622 138.637C140.978 138.422 141.158 138.149 141.158 137.876V138.618C141.158 138.743 141.119 138.864 141.044 138.981V146.034C141.709 146.307 142.342 146.733 142.897 147.346C143.526 148.041 143.885 148.866 144.006 149.791C144.034 149.971 144.057 150.154 144.065 150.346L144.073 169.01C144.077 169.705 143.623 170.404 142.721 170.947C140.88 172.048 137.852 172.076 135.961 171.017C135 170.478 134.515 169.76 134.511 169.041L134.507 150.373Z" fill="url(#paint30_linear_306_858)"/>
<path opacity="0.3" d="M134.507 150.373C134.507 150.275 134.519 150.182 134.535 150.084C134.589 149.342 134.785 148.713 135.07 148.198C135.609 147.171 136.488 146.417 137.504 146.015V138.668C137.504 138.934 137.684 139.203 138.044 139.403C138.747 139.797 139.868 139.785 140.552 139.375C140.888 139.176 141.056 138.914 141.052 138.657V146.034C141.717 146.307 142.35 146.733 142.904 147.346C143.534 148.042 143.893 148.866 144.014 149.791C144.041 149.971 144.065 150.154 144.073 150.346L144.081 169.01C144.084 169.705 143.631 170.404 142.729 170.947C140.888 172.048 137.86 172.076 135.969 171.017C135.007 170.478 134.523 169.76 134.519 169.041L134.507 150.373Z" fill="url(#paint31_radial_306_858)"/>
<g opacity="0.3">
<path d="M134.75 149.897H143.83C143.85 150.045 143.87 150.197 143.877 150.346L143.885 169.01C143.885 169.666 143.44 170.295 142.627 170.783C141.744 171.31 140.556 171.599 139.282 171.599C138.071 171.599 136.926 171.334 136.059 170.845C135.191 170.357 134.71 169.713 134.707 169.033L134.699 150.369C134.699 150.283 134.707 150.197 134.726 150.096C134.73 150.029 134.742 149.963 134.75 149.897Z" fill="url(#paint32_linear_306_858)"/>
<path d="M139.286 152.845C136.757 152.845 134.706 151.661 134.706 150.201C134.706 148.741 136.757 147.557 139.286 147.557C141.815 147.557 143.866 148.741 143.866 150.201C143.866 151.661 141.815 152.845 139.286 152.845Z" fill="#502121"/>
</g>
<path opacity="0.9" d="M137.922 137.122C138.649 136.688 139.841 136.677 140.587 137.094C141.334 137.512 141.349 138.204 140.626 138.637C139.9 139.071 138.708 139.082 137.961 138.664C137.211 138.247 137.196 137.555 137.922 137.122Z" fill="#2F452E"/>
<path opacity="0.8" d="M138.333 137.352C138.837 137.052 139.665 137.044 140.185 137.333C140.705 137.622 140.716 138.102 140.212 138.407C139.708 138.707 138.88 138.715 138.36 138.426C137.84 138.137 137.829 137.653 138.333 137.352Z" fill="#2A372B"/>
<path opacity="0.3" d="M140.822 138.497C141.044 138.309 141.158 138.094 141.158 137.876V138.618C141.158 138.836 141.041 139.051 140.818 139.239V138.497H140.822Z" fill="#2A342B"/>
<path opacity="0.2" d="M138.645 139.649C138.395 139.598 138.161 139.52 137.961 139.407C137.79 139.313 137.665 139.2 137.571 139.082V138.344C137.665 138.461 137.79 138.571 137.961 138.664C138.165 138.778 138.399 138.856 138.649 138.907V139.649H138.645Z" fill="url(#paint33_linear_306_858)"/>
<path opacity="0.6" d="M135.367 170.107C135.906 170.693 136.946 170.998 136.946 170.998V152.564C136.946 151.014 135.367 150.119 135.367 151.58V170.107Z" fill="url(#paint34_linear_306_858)"/>
<path d="M164.181 180.918C164.102 181.484 163.77 182.542 162.418 183.37C161.465 183.956 159.007 184.726 156.538 183.437C155.186 182.652 154.787 181.644 154.681 180.961C154.681 177.582 164.184 177.555 164.181 180.918Z" fill="#202E23"/>
<path opacity="0.9" d="M154.638 161.992C154.638 161.894 154.65 161.8 154.666 161.703C154.721 160.961 154.916 160.332 155.201 159.816C155.74 158.789 156.62 158.036 157.636 157.633V150.603C157.565 150.486 157.522 150.365 157.522 150.244L157.518 149.502C157.518 149.787 157.71 150.068 158.089 150.283C158.835 150.701 160.031 150.689 160.754 150.256C161.109 150.041 161.289 149.768 161.289 149.494L161.293 150.236C161.293 150.361 161.254 150.482 161.18 150.6V157.653C161.844 157.926 162.477 158.352 163.032 158.965C163.661 159.66 164.02 160.484 164.141 161.41C164.169 161.59 164.192 161.773 164.2 161.964L164.208 180.629C164.208 181.324 163.758 182.023 162.856 182.566C161.015 183.667 157.987 183.695 156.096 182.636C155.135 182.097 154.65 181.379 154.646 180.66L154.638 161.992Z" fill="url(#paint35_linear_306_858)"/>
<path opacity="0.3" d="M154.638 161.992C154.638 161.894 154.65 161.8 154.666 161.703C154.721 160.961 154.916 160.332 155.201 159.817C155.74 158.789 156.62 158.036 157.636 157.633V150.287C157.636 150.553 157.815 150.822 158.171 151.021C158.874 151.416 159.996 151.404 160.679 150.994C161.015 150.795 161.183 150.533 161.18 150.275V157.653C161.844 157.926 162.477 158.352 163.032 158.965C163.661 159.66 164.02 160.484 164.141 161.41C164.169 161.59 164.192 161.773 164.2 161.965L164.208 180.629C164.208 181.324 163.758 182.023 162.856 182.566C161.015 183.667 157.987 183.695 156.096 182.636C155.135 182.097 154.65 181.379 154.646 180.66L154.638 161.992Z" fill="url(#paint36_radial_306_858)"/>
<path opacity="0.9" d="M158.053 148.741C158.78 148.307 159.972 148.295 160.718 148.713C161.465 149.131 161.48 149.822 160.757 150.256C160.031 150.689 158.839 150.701 158.093 150.283C157.342 149.865 157.327 149.174 158.053 148.741Z" fill="#2F452E"/>
<path opacity="0.8" d="M158.464 148.971C158.968 148.67 159.796 148.662 160.316 148.951C160.836 149.24 160.847 149.721 160.343 150.025C159.839 150.326 159.011 150.334 158.491 150.045C157.972 149.752 157.96 149.272 158.464 148.971Z" fill="#2A372B"/>
<path opacity="0.3" d="M160.953 150.111C161.176 149.924 161.289 149.709 161.289 149.49L161.293 150.232C161.293 150.451 161.176 150.666 160.953 150.853V150.111Z" fill="#2A342B"/>
<path opacity="0.2" d="M158.776 151.267C158.526 151.217 158.292 151.139 158.093 151.025C157.921 150.932 157.796 150.818 157.702 150.701V149.963C157.796 150.08 157.921 150.19 158.093 150.283C158.296 150.397 158.53 150.475 158.78 150.525V151.267H158.776Z" fill="url(#paint37_linear_306_858)"/>
<path opacity="0.6" d="M155.498 181.726C156.037 182.312 157.077 182.621 157.077 182.621V164.187C157.077 162.636 155.498 161.742 155.498 163.203V181.726Z" fill="url(#paint38_linear_306_858)"/>
<path d="M184.421 192.599C184.343 193.165 184.011 194.224 182.659 195.052C181.705 195.637 179.248 196.407 176.778 195.118C175.426 194.333 175.028 193.325 174.922 192.642C174.922 189.26 184.425 189.232 184.421 192.599Z" fill="#202E23"/>
<path opacity="0.9" d="M174.879 173.669C174.879 173.572 174.891 173.478 174.906 173.38C174.961 172.638 175.157 172.009 175.442 171.494C175.981 170.467 176.86 169.713 177.876 169.311V162.281C177.806 162.164 177.763 162.043 177.763 161.922L177.759 161.18C177.759 161.465 177.95 161.746 178.329 161.961C179.076 162.378 180.271 162.367 180.994 161.933C181.35 161.718 181.53 161.445 181.53 161.168V161.91C181.53 162.035 181.491 162.156 181.416 162.277V169.33C182.081 169.604 182.714 170.029 183.268 170.642C183.898 171.338 184.257 172.162 184.378 173.087C184.406 173.267 184.429 173.45 184.437 173.642L184.445 192.306C184.448 193.001 183.995 193.7 183.093 194.243C181.252 195.345 178.224 195.372 176.333 194.31C175.371 193.771 174.887 193.052 174.883 192.333L174.879 173.669Z" fill="url(#paint39_linear_306_858)"/>
<path opacity="0.3" d="M174.879 173.669C174.879 173.572 174.891 173.478 174.906 173.38C174.961 172.638 175.157 172.009 175.442 171.494C175.981 170.467 176.86 169.713 177.876 169.311V161.961C177.876 162.226 178.056 162.496 178.415 162.695C179.119 163.089 180.24 163.078 180.924 162.671C181.26 162.472 181.428 162.211 181.424 161.953V169.33C182.088 169.604 182.721 170.029 183.276 170.642C183.905 171.338 184.265 172.162 184.386 173.087C184.413 173.267 184.437 173.451 184.445 173.642L184.452 192.306C184.456 193.001 184.003 193.7 183.1 194.243C181.26 195.345 178.232 195.372 176.341 194.31C175.379 193.771 174.895 193.052 174.891 192.333L174.879 173.669Z" fill="url(#paint40_radial_306_858)"/>
<path opacity="0.9" d="M178.29 160.418C179.017 159.984 180.209 159.973 180.955 160.391C181.701 160.808 181.717 161.5 180.994 161.933C180.267 162.367 179.076 162.378 178.329 161.961C177.583 161.543 177.567 160.851 178.29 160.418Z" fill="#2F452E"/>
<path opacity="0.8" d="M178.705 160.648C179.209 160.348 180.037 160.34 180.557 160.629C181.076 160.918 181.088 161.398 180.584 161.703C180.08 162.004 179.252 162.011 178.732 161.722C178.212 161.429 178.2 160.949 178.705 160.648Z" fill="#2A372B"/>
<path opacity="0.3" d="M181.194 161.793C181.416 161.605 181.53 161.39 181.53 161.172V161.914C181.53 162.132 181.412 162.347 181.19 162.535V161.793H181.194Z" fill="#2A342B"/>
<path opacity="0.2" d="M179.017 162.945C178.767 162.894 178.533 162.816 178.333 162.703C178.161 162.609 178.036 162.496 177.943 162.379V161.64C178.036 161.758 178.161 161.867 178.333 161.961C178.537 162.074 178.771 162.152 179.021 162.203V162.945H179.017Z" fill="url(#paint41_linear_306_858)"/>
<path opacity="0.6" d="M175.735 193.404C176.274 193.989 177.313 194.298 177.313 194.298V175.864C177.313 174.314 175.735 173.419 175.735 174.88V193.404Z" fill="url(#paint42_linear_306_858)"/>
<path d="M204.658 204.276C204.58 204.843 204.248 205.901 202.896 206.729C201.942 207.315 199.484 208.084 197.015 206.795C195.663 206.01 195.264 205.003 195.159 204.323C195.159 200.941 204.666 200.914 204.658 204.276Z" fill="#202E23"/>
<path opacity="0.9" d="M195.116 185.35C195.116 185.253 195.128 185.159 195.143 185.061C195.198 184.319 195.393 183.691 195.679 183.175C196.218 182.148 197.097 181.394 198.113 180.992V173.962C198.043 173.845 198 173.724 198 173.603L197.996 172.861C197.996 173.146 198.187 173.427 198.566 173.642C199.312 174.06 200.508 174.048 201.231 173.615C201.587 173.4 201.766 173.126 201.766 172.849L201.77 173.591C201.77 173.716 201.731 173.837 201.657 173.954V181.008C202.321 181.281 202.954 181.707 203.509 182.32C204.134 183.015 204.498 183.839 204.619 184.765C204.646 184.944 204.67 185.128 204.677 185.319L204.685 203.983C204.689 204.679 204.236 205.378 203.333 205.921C201.493 207.022 198.465 207.049 196.573 205.991C195.612 205.452 195.128 204.733 195.124 204.015L195.116 185.35Z" fill="url(#paint43_linear_306_858)"/>
<path opacity="0.3" d="M195.116 185.351C195.116 185.253 195.128 185.159 195.143 185.061C195.198 184.319 195.393 183.691 195.679 183.175C196.218 182.148 197.097 181.394 198.113 180.992V173.646C198.113 173.911 198.293 174.181 198.648 174.38C199.352 174.775 200.473 174.763 201.157 174.357C201.493 174.157 201.661 173.896 201.657 173.638V181.015C202.321 181.289 202.954 181.715 203.509 182.328C204.134 183.023 204.498 183.847 204.619 184.772C204.646 184.952 204.67 185.136 204.677 185.327L204.685 203.991C204.689 204.686 204.236 205.386 203.333 205.928C201.493 207.03 198.465 207.057 196.573 205.999C195.612 205.46 195.128 204.741 195.124 204.023L195.116 185.351Z" fill="url(#paint44_radial_306_858)"/>
<path opacity="0.9" d="M198.531 172.095C199.258 171.662 200.449 171.65 201.196 172.068C201.942 172.486 201.958 173.177 201.235 173.611C200.508 174.044 199.316 174.056 198.57 173.638C197.824 173.22 197.804 172.529 198.531 172.095Z" fill="#2F452E"/>
<path opacity="0.8" d="M198.945 172.33C199.449 172.029 200.278 172.021 200.797 172.31C201.317 172.603 201.329 173.083 200.825 173.384C200.321 173.685 199.492 173.693 198.973 173.404C198.453 173.111 198.441 172.63 198.945 172.33Z" fill="#2A372B"/>
<path opacity="0.3" d="M201.43 173.47C201.653 173.283 201.766 173.068 201.766 172.849L201.77 173.591C201.77 173.81 201.653 174.025 201.43 174.212V173.47Z" fill="#2A342B"/>
<path opacity="0.2" d="M199.254 174.622C199.004 174.571 198.769 174.493 198.57 174.38C198.398 174.286 198.273 174.173 198.179 174.056V173.318C198.273 173.435 198.398 173.544 198.57 173.638C198.773 173.751 199.008 173.829 199.258 173.88V174.622H199.254Z" fill="url(#paint45_linear_306_858)"/>
<path opacity="0.6" d="M195.975 205.085C196.515 205.671 197.554 205.979 197.554 205.979V187.545C197.554 185.995 195.975 185.101 195.975 186.561V205.085Z" fill="url(#paint46_linear_306_858)"/>
<path d="M101.786 87.7411L107.894 86.2961C109.527 85.9133 110.672 84.4722 110.676 82.7929L110.719 42.9727C110.719 42.7462 110.898 42.5665 111.125 42.5665C111.352 42.5665 111.531 42.7462 111.531 42.9727L111.488 82.7929C111.481 84.851 110.078 86.6202 108.077 87.0889L101.97 88.5339C101.942 88.5417 101.911 88.5417 101.876 88.5417C101.692 88.5417 101.524 88.4167 101.478 88.2293C101.431 88.0145 101.567 87.7958 101.786 87.7411Z" fill="#6B2D2E"/>
<path d="M97.2145 101.711L103.322 100.266C104.955 99.8832 106.1 98.4421 106.104 96.7627L106.147 56.9425C106.147 56.716 106.327 56.5364 106.553 56.5364C106.78 56.5364 106.96 56.716 106.96 56.9425L106.917 96.7627C106.909 98.8209 105.506 100.59 103.505 101.059L97.3981 102.504C97.3708 102.512 97.3395 102.512 97.3044 102.512C97.1207 102.512 96.9527 102.387 96.9058 102.199C96.8589 101.984 96.9957 101.766 97.2145 101.711Z" fill="#6B2D2E"/>
<path d="M97.7693 107.909V113.908C97.7693 114.056 97.867 114.205 98.0624 114.318C98.4492 114.54 99.0705 114.54 99.4534 114.318C99.6449 114.205 99.7426 114.06 99.7426 113.916V107.917C99.7387 108.061 97.7693 108.057 97.7693 107.909Z" fill="url(#paint47_linear_306_858)"/>
<path d="M101.571 107.237C100.028 108.135 97.5114 108.135 95.9563 107.237C95.167 106.78 94.7723 106.183 94.7723 105.589L94.7684 106.827C94.7684 107.421 95.1592 108.018 95.9524 108.475C97.5075 109.374 100.024 109.374 101.567 108.475C102.341 108.026 102.732 107.436 102.732 106.851L102.736 105.613C102.736 106.198 102.349 106.788 101.571 107.237Z" fill="url(#paint48_linear_306_858)"/>
<path d="M101.567 103.98C100 103.074 97.4841 103.074 95.925 103.98C94.3816 104.878 94.3894 106.335 95.9563 107.237C97.5114 108.135 100.028 108.135 101.571 107.237C103.13 106.331 103.123 104.874 101.567 103.98Z" fill="#4B4947"/>
<path d="M96.0383 88.8893L96.0344 105.402C96.0344 105.808 96.3001 106.214 96.8393 106.526C97.8982 107.14 99.6175 107.14 100.669 106.526C101.196 106.218 101.462 105.819 101.462 105.417L101.466 88.9049C101.47 89.3072 96.0383 89.2955 96.0383 88.8893Z" fill="url(#paint49_linear_306_858)"/>
<path d="M101.571 95.595C100.028 96.4933 97.5114 96.4933 95.9563 95.595C95.167 95.1381 94.7723 94.5405 94.7723 93.9469L94.7684 95.1849C94.7684 95.7786 95.1592 96.3761 95.9524 96.833C97.5075 97.7313 100.024 97.7313 101.567 96.833C102.341 96.3839 102.732 95.7942 102.732 95.2084L102.736 93.9703C102.736 94.5601 102.349 95.1459 101.571 95.595Z" fill="url(#paint50_linear_306_858)"/>
<path d="M101.567 92.3378C100 91.4317 97.4841 91.4317 95.925 92.3378C94.3816 93.2361 94.3894 94.6928 95.9563 95.595C97.5114 96.4932 100.028 96.4932 101.571 95.595C103.13 94.6928 103.123 93.2361 101.567 92.3378Z" fill="#4B4947"/>
<path d="M102.017 94.2632C100.231 95.3021 97.3161 95.3021 95.5147 94.2632C94.6004 93.736 94.1432 93.0447 94.1432 92.3535L94.1393 93.7868C94.1393 94.4741 94.5926 95.1654 95.5108 95.6926C97.3082 96.7315 100.223 96.7315 102.013 95.6926C102.912 95.1693 103.361 94.4898 103.361 93.8102L103.365 92.3769C103.365 93.0603 102.915 93.7399 102.017 94.2632Z" fill="url(#paint51_linear_306_858)"/>
<path d="M102.013 90.4906C100.196 89.4439 97.2848 89.4439 95.4795 90.4906C93.6938 91.5294 93.7017 93.2166 95.5186 94.2632C97.3161 95.3021 100.231 95.3021 102.021 94.2632C103.822 93.2166 103.81 91.5294 102.013 90.4906Z" fill="#4B4947"/>
<path d="M94.9286 41.9885L94.9247 92.2129C94.9247 92.7831 95.2998 93.3572 96.0618 93.7946C97.5544 94.6577 99.9731 94.6577 101.458 93.7946C102.204 93.3611 102.575 92.7987 102.575 92.2324L102.579 42.0081C102.579 42.5743 94.9286 42.5587 94.9286 41.9885Z" fill="url(#paint52_linear_306_858)"/>
<path d="M121.996 99.4028L128.103 97.9578C129.736 97.5751 130.881 96.134 130.885 94.4546L130.928 54.6344C130.928 54.4079 131.108 54.2283 131.334 54.2283C131.561 54.2283 131.741 54.4079 131.741 54.6344L131.698 94.4546C131.69 96.5128 130.287 98.282 128.287 98.7506L122.179 100.196C122.152 100.203 122.121 100.203 122.085 100.203C121.902 100.203 121.734 100.078 121.687 99.891C121.64 99.6762 121.777 99.4575 121.996 99.4028Z" fill="#6B2D2E"/>
<path d="M117.424 113.373L123.531 111.928C125.165 111.545 126.309 110.104 126.313 108.424L126.356 68.6043C126.356 68.3778 126.536 68.1981 126.763 68.1981C126.989 68.1981 127.169 68.3778 127.169 68.6043L127.126 108.424C127.118 110.483 125.715 112.252 123.715 112.72L117.608 114.165C117.58 114.173 117.549 114.173 117.514 114.173C117.33 114.173 117.162 114.044 117.115 113.861C117.068 113.646 117.201 113.427 117.424 113.373Z" fill="#6B2D2E"/>
<path d="M117.979 119.571V125.569C117.979 125.718 118.076 125.866 118.272 125.98C118.659 126.202 119.28 126.202 119.663 125.98C119.854 125.866 119.952 125.722 119.952 125.577V119.578C119.948 119.723 117.979 119.719 117.979 119.571Z" fill="url(#paint53_linear_306_858)"/>
<path d="M121.781 118.899C120.237 119.797 117.721 119.797 116.166 118.899C115.376 118.442 114.982 117.844 114.982 117.251L114.978 118.489C114.978 119.083 115.369 119.68 116.162 120.137C117.717 121.035 120.233 121.035 121.777 120.137C122.55 119.688 122.941 119.098 122.941 118.512L122.945 117.274C122.945 117.86 122.558 118.45 121.781 118.899Z" fill="url(#paint54_linear_306_858)"/>
<path d="M121.777 115.642C120.21 114.736 117.693 114.736 116.134 115.642C114.591 116.54 114.599 117.997 116.166 118.899C117.721 119.797 120.237 119.797 121.781 118.899C123.34 117.993 123.332 116.536 121.777 115.642Z" fill="#4B4947"/>
<path d="M116.248 100.551L116.244 117.063C116.244 117.47 116.51 117.876 117.049 118.188C118.108 118.801 119.823 118.801 120.878 118.188C121.406 117.88 121.671 117.481 121.671 117.079L121.675 100.567C121.679 100.969 116.248 100.957 116.248 100.551Z" fill="url(#paint55_linear_306_858)"/>
<path d="M121.781 107.257C120.237 108.155 117.721 108.155 116.166 107.257C115.376 106.8 114.982 106.202 114.982 105.609L114.978 106.847C114.978 107.44 115.369 108.038 116.162 108.495C117.717 109.393 120.233 109.393 121.777 108.495C122.55 108.046 122.941 107.456 122.941 106.87L122.945 105.632C122.945 106.222 122.558 106.808 121.781 107.257Z" fill="url(#paint56_linear_306_858)"/>
<path d="M121.777 104C120.21 103.093 117.693 103.093 116.134 104C114.591 104.898 114.599 106.355 116.166 107.257C117.721 108.155 120.237 108.155 121.781 107.257C123.34 106.355 123.332 104.898 121.777 104Z" fill="#4B4947"/>
<path d="M122.226 105.925C120.436 106.964 117.525 106.964 115.724 105.925C114.81 105.398 114.353 104.706 114.353 104.015L114.349 105.449C114.349 106.136 114.802 106.827 115.72 107.354C117.518 108.393 120.433 108.393 122.222 107.354C123.121 106.831 123.57 106.151 123.57 105.472L123.574 104.039C123.574 104.722 123.125 105.402 122.226 105.925Z" fill="url(#paint57_linear_306_858)"/>
<path d="M122.222 102.152C120.405 101.106 117.494 101.106 115.689 102.152C113.899 103.191 113.911 104.878 115.724 105.925C117.522 106.964 120.436 106.964 122.226 105.925C124.031 104.878 124.02 103.191 122.222 102.152Z" fill="#4B4947"/>
<path d="M115.138 53.6503L115.134 103.875C115.134 104.445 115.509 105.019 116.271 105.456C117.764 106.319 120.183 106.319 121.667 105.456C122.414 105.023 122.785 104.46 122.785 103.894L122.789 53.6698C122.789 54.2361 115.138 54.2205 115.138 53.6503Z" fill="url(#paint58_linear_306_858)"/>
<path d="M142.205 111.065L148.312 109.62C149.946 109.237 151.09 107.796 151.094 106.116L151.137 66.2962C151.137 66.0697 151.317 65.89 151.544 65.89C151.77 65.89 151.95 66.0697 151.95 66.2962L151.907 106.116C151.899 108.175 150.497 109.944 148.496 110.412L142.389 111.857C142.361 111.865 142.33 111.865 142.295 111.865C142.111 111.865 141.943 111.736 141.896 111.553C141.849 111.338 141.986 111.119 142.205 111.065Z" fill="#6B2D2E"/>
<path d="M137.629 125.034L143.737 123.589C145.37 123.207 146.515 121.766 146.519 120.086L146.562 80.266C146.562 80.0395 146.741 79.8599 146.968 79.8599C147.195 79.8599 147.374 80.0395 147.374 80.266L147.332 120.086C147.324 122.144 145.921 123.914 143.92 124.382L137.813 125.827C137.786 125.835 137.754 125.839 137.719 125.839C137.536 125.839 137.367 125.71 137.321 125.523C137.274 125.308 137.41 125.089 137.629 125.034Z" fill="#6B2D2E"/>
<path d="M138.188 131.232V137.231C138.188 137.38 138.286 137.528 138.481 137.641C138.868 137.864 139.489 137.864 139.872 137.641C140.064 137.528 140.161 137.384 140.161 137.239V131.24C140.157 131.385 138.184 131.381 138.188 131.232Z" fill="url(#paint59_linear_306_858)"/>
<path d="M141.99 130.561C140.447 131.459 137.93 131.459 136.375 130.561C135.586 130.104 135.191 129.506 135.191 128.913L135.187 130.151C135.187 130.744 135.578 131.342 136.371 131.799C137.926 132.697 140.443 132.697 141.986 131.799C142.764 131.35 143.151 130.76 143.151 130.174L143.154 128.936C143.154 129.522 142.768 130.112 141.99 130.561Z" fill="url(#paint60_linear_306_858)"/>
<path d="M141.986 127.304C140.419 126.397 137.903 126.397 136.344 127.304C134.8 128.202 134.808 129.659 136.375 130.561C137.93 131.459 140.447 131.459 141.99 130.561C143.549 129.655 143.541 128.198 141.986 127.304Z" fill="#4B4947"/>
<path d="M136.457 112.217L136.453 128.729C136.453 129.135 136.719 129.541 137.258 129.854C138.317 130.467 140.036 130.467 141.087 129.854C141.615 129.545 141.881 129.147 141.881 128.745L141.884 112.232C141.888 112.631 136.457 112.619 136.457 112.217Z" fill="url(#paint61_linear_306_858)"/>
<path d="M141.99 118.918C140.447 119.817 137.93 119.817 136.375 118.918C135.586 118.461 135.191 117.864 135.191 117.27L135.187 118.508C135.187 119.102 135.578 119.7 136.371 120.156C137.926 121.055 140.443 121.055 141.986 120.156C142.764 119.707 143.151 119.118 143.151 118.532L143.154 117.294C143.154 117.883 142.768 118.469 141.99 118.918Z" fill="url(#paint62_linear_306_858)"/>
<path d="M141.986 115.661C140.419 114.755 137.903 114.755 136.344 115.661C134.8 116.56 134.808 118.016 136.375 118.918C137.93 119.817 140.447 119.817 141.99 118.918C143.549 118.016 143.541 116.56 141.986 115.661Z" fill="#4B4947"/>
<path d="M142.435 117.587C140.646 118.626 137.735 118.626 135.933 117.587C135.019 117.059 134.562 116.368 134.562 115.677L134.558 117.11C134.558 117.798 135.011 118.489 135.93 119.016C137.731 120.055 140.642 120.055 142.432 119.016C143.33 118.493 143.78 117.813 143.78 117.134L143.784 115.7C143.784 116.384 143.334 117.063 142.435 117.587Z" fill="url(#paint63_linear_306_858)"/>
<path d="M142.432 113.814C140.615 112.767 137.704 112.767 135.898 113.814C134.113 114.853 134.12 116.54 135.937 117.587C137.735 118.626 140.65 118.626 142.439 117.587C144.241 116.54 144.229 114.853 142.432 113.814Z" fill="#4B4947"/>
<path d="M135.347 65.312L135.343 115.536C135.343 116.107 135.719 116.681 136.481 117.118C137.973 117.981 140.392 117.981 141.877 117.118C142.623 116.685 142.994 116.122 142.994 115.556L142.998 65.3315C142.998 65.8978 135.347 65.8822 135.347 65.312Z" fill="url(#paint64_linear_306_858)"/>
<path d="M162.414 122.726L168.522 121.281C170.155 120.898 171.3 119.457 171.304 117.778L171.347 77.9579C171.347 77.7313 171.527 77.5517 171.753 77.5517C171.98 77.5517 172.16 77.7313 172.16 77.9579L172.117 117.778C172.109 119.836 170.706 121.605 168.705 122.074L162.598 123.519C162.571 123.527 162.539 123.527 162.504 123.527C162.321 123.527 162.153 123.398 162.106 123.214C162.059 123 162.196 122.781 162.414 122.726Z" fill="#6B2D2E"/>
<path d="M157.839 136.696L163.946 135.251C165.579 134.868 166.724 133.427 166.728 131.748L166.771 91.9277C166.771 91.7012 166.951 91.5215 167.178 91.5215C167.404 91.5215 167.584 91.7012 167.584 91.9277L167.541 131.748C167.533 133.806 166.13 135.575 164.13 136.044L158.022 137.489C157.995 137.497 157.964 137.501 157.929 137.501C157.745 137.501 157.577 137.372 157.53 137.184C157.483 136.969 157.62 136.751 157.839 136.696Z" fill="#6B2D2E"/>
<path d="M158.394 142.894V148.893C158.394 149.041 158.491 149.19 158.687 149.303C159.073 149.526 159.695 149.526 160.078 149.303C160.269 149.19 160.367 149.045 160.367 148.901V142.902C160.367 143.046 158.394 143.043 158.394 142.894Z" fill="url(#paint65_linear_306_858)"/>
<path d="M162.199 142.222C160.656 143.121 158.14 143.121 156.584 142.222C155.795 141.765 155.4 141.168 155.4 140.574L155.397 141.812C155.397 142.406 155.787 143.003 156.58 143.46C158.136 144.359 160.652 144.359 162.195 143.46C162.969 143.011 163.36 142.422 163.36 141.836L163.364 140.598C163.364 141.184 162.973 141.773 162.199 142.222Z" fill="url(#paint66_linear_306_858)"/>
<path d="M162.195 138.965C160.629 138.059 158.112 138.059 156.553 138.965C155.01 139.863 155.017 141.32 156.584 142.222C158.14 143.121 160.656 143.121 162.199 142.222C163.758 141.316 163.751 139.86 162.195 138.965Z" fill="#4B4947"/>
<path d="M156.666 123.878L156.663 140.391C156.663 140.797 156.932 141.203 157.467 141.515C158.526 142.129 160.246 142.129 161.297 141.515C161.824 141.207 162.09 140.809 162.09 140.406L162.094 123.894C162.098 124.292 156.666 124.281 156.666 123.878Z" fill="url(#paint67_linear_306_858)"/>
<path d="M162.199 130.58C160.656 131.478 158.14 131.478 156.584 130.58C155.795 130.123 155.4 129.526 155.4 128.932L155.397 130.17C155.397 130.764 155.787 131.361 156.58 131.818C158.136 132.716 160.652 132.716 162.195 131.818C162.969 131.369 163.36 130.779 163.36 130.194L163.364 128.955C163.364 129.545 162.973 130.131 162.199 130.58Z" fill="url(#paint68_linear_306_858)"/>
<path d="M162.195 127.323C160.629 126.417 158.112 126.417 156.553 127.323C155.01 128.221 155.017 129.678 156.584 130.58C158.14 131.478 160.656 131.478 162.199 130.58C163.758 129.678 163.751 128.221 162.195 127.323Z" fill="#4B4947"/>
<path d="M162.645 129.248C160.859 130.287 157.944 130.287 156.143 129.248C155.229 128.721 154.771 128.03 154.771 127.339L154.767 128.772C154.767 129.459 155.221 130.151 156.139 130.678C157.936 131.717 160.851 131.717 162.641 130.678C163.54 130.154 163.989 129.475 163.989 128.795L163.993 127.362C163.993 128.046 163.544 128.725 162.645 129.248Z" fill="url(#paint69_linear_306_858)"/>
<path d="M162.641 125.476C160.824 124.429 157.913 124.429 156.108 125.476C154.322 126.515 154.33 128.202 156.147 129.248C157.948 130.287 160.859 130.287 162.649 129.248C164.45 128.202 164.438 126.515 162.641 125.476Z" fill="#4B4947"/>
<path d="M155.557 76.9737L155.553 127.198C155.553 127.768 155.928 128.342 156.69 128.78C158.183 129.643 160.601 129.643 162.086 128.78C162.832 128.346 163.204 127.784 163.204 127.218L163.208 76.9932C163.208 77.5595 155.557 77.5439 155.557 76.9737Z" fill="url(#paint70_linear_306_858)"/>
<path opacity="0.5" d="M163.739 199.152L164.54 198.688V89.6782L163.739 90.139V199.152Z" fill="#4AA6A3"/>
<path opacity="0.2" d="M75.9579 148.498L163.739 199.152V90.139L75.9579 39.4851V148.498Z" fill="#A6DAEC"/>
<path d="M163.739 90.139L164.54 89.6782L76.7589 39.0203L75.9579 39.4851L163.739 90.139Z" fill="url(#paint71_linear_306_858)"/>
<path d="M162.352 113.802L196.886 93.8766V71.014L162.352 90.9397V113.802Z" fill="#9DA5A6"/>
<path d="M74.5708 63.1483L162.352 113.802V90.9396L74.5708 40.2857V63.1483Z" fill="#BAC3C6"/>
<path d="M74.5708 40.2857L130.455 8.03827L218.236 58.6922L162.352 90.9397L74.5708 40.2857Z" fill="url(#paint72_linear_306_858)"/>
<path d="M207.463 57.7588L132.073 14.248L106.284 29.1356L181.678 72.6426L207.463 57.7588Z" fill="#4B4947"/>
<path d="M161.051 72.8261L148.043 65.3198L143.358 68.0263L156.366 75.5326L161.051 72.8261Z" fill="#4B4947"/>
<path d="M119.061 48.5966L106.053 41.0903L101.364 43.7929L114.372 51.2992L119.061 48.5966Z" fill="#4B4947"/>
<path d="M136.574 25.9097C126.091 25.9097 117.592 21.005 117.592 14.9548C117.592 8.90465 126.091 4 136.574 4C147.058 4 155.557 8.90465 155.557 14.9548C155.557 21.005 147.058 25.9097 136.574 25.9097Z" fill="#4B4947"/>
<path d="M155.557 14.8533V29.6823C155.604 32.5177 153.748 35.3648 149.996 37.5284C142.584 41.8049 130.565 41.8049 123.152 37.5284C119.491 35.4156 117.639 32.6544 117.592 29.8815V15.0564C117.635 17.8253 119.491 20.5865 123.152 22.6994C130.565 26.9758 142.584 26.9758 149.996 22.6994C153.748 20.5357 155.604 17.6886 155.557 14.8533Z" fill="url(#paint73_linear_306_858)"/>
<path d="M165.58 47.1828C158.167 42.9063 158.167 35.9702 165.58 31.6898C172.992 27.4133 185.011 27.4133 192.424 31.6898C199.836 35.9663 199.836 42.9024 192.424 47.1828C185.015 51.4632 172.996 51.4632 165.58 47.1828Z" fill="#4B4947"/>
<path d="M197.984 39.3367V54.1657C198.031 57.0011 196.175 59.8482 192.424 62.0118C185.011 66.2883 172.992 66.2883 165.579 62.0118C161.918 59.899 160.066 57.1378 160.019 54.3688V39.5398C160.062 42.3087 161.914 45.0699 165.579 47.1828C172.992 51.4592 185.011 51.4592 192.424 47.1828C196.179 45.0191 198.031 42.172 197.984 39.3367Z" fill="url(#paint74_linear_306_858)"/>
<path d="M106.518 44.5896C106.944 44.5896 107.288 44.2459 107.288 43.8202V26.2495C107.288 24.9021 108.011 23.6523 109.175 22.9806L133.183 9.124C133.566 8.90138 133.906 9.04979 134.042 9.124C134.171 9.1982 134.468 9.41691 134.468 9.86604V12.6389C134.468 13.0646 134.812 13.4083 135.238 13.4083C135.664 13.4083 136.008 13.0646 136.008 12.6389V9.86604C136.008 8.99902 135.558 8.22183 134.808 7.78833C134.062 7.35482 133.159 7.35482 132.413 7.78833L108.405 21.6449C106.764 22.5901 105.744 24.3553 105.744 26.2495V43.8163C105.748 44.242 106.092 44.5896 106.518 44.5896Z" fill="#944342"/>
<path d="M113.258 48.4755C113.684 48.4755 114.028 48.1318 114.028 47.7061V30.1393C114.028 28.7919 114.751 27.5422 115.916 26.8704L139.927 13.0177C140.325 12.7834 140.658 12.9435 140.783 13.0177C140.912 13.0919 141.209 13.3106 141.209 13.7598V16.5327C141.209 16.9584 141.552 17.302 141.978 17.302C142.404 17.302 142.748 16.9584 142.748 16.5327V13.7598C142.748 12.8928 142.299 12.1156 141.552 11.6821C140.794 11.2486 139.9 11.2525 139.157 11.6821L115.15 25.5387C113.509 26.4838 112.489 28.2491 112.489 30.1432V47.71C112.489 48.1318 112.833 48.4755 113.258 48.4755Z" fill="#944342"/>
<path d="M148.754 68.9597C149.18 68.9597 149.524 68.616 149.524 68.1903V50.6235C149.524 49.2761 150.246 48.0225 151.415 47.3507L175.418 33.498C175.817 33.2637 176.145 33.4199 176.274 33.498C176.403 33.5722 176.7 33.7948 176.7 34.2362V37.009C176.7 37.4347 177.044 37.7784 177.47 37.7784C177.896 37.7784 178.24 37.4347 178.24 37.009V34.2362C178.24 33.3691 177.79 32.5959 177.044 32.1623C176.29 31.7288 175.395 31.7288 174.649 32.1623L150.641 46.015C149 46.9641 147.98 48.7293 147.98 50.6235V68.1903C147.98 68.616 148.328 68.9597 148.754 68.9597Z" fill="#944342"/>
<path d="M155.49 72.8495C155.916 72.8495 156.26 72.5058 156.26 72.0801V54.5133C156.26 53.1659 156.987 51.9123 158.151 51.2405L182.155 37.3879C182.557 37.1574 182.882 37.3136 183.011 37.3879C183.139 37.4621 183.436 37.6808 183.436 38.126V40.8989C183.436 41.3246 183.78 41.6682 184.206 41.6682C184.632 41.6682 184.976 41.3246 184.976 40.8989V38.126C184.976 37.259 184.527 36.4857 183.78 36.0522C183.026 35.6187 182.131 35.6187 181.385 36.0522L157.378 49.9049C155.736 50.8539 154.717 52.6192 154.717 54.5133V72.0801C154.721 72.5058 155.064 72.8495 155.49 72.8495Z" fill="#944342"/>
<path d="M108.917 64.7183C109.769 65.2104 110.449 66.4055 110.445 67.3818C110.441 68.3582 109.757 68.7683 108.906 68.2762C108.058 67.7841 107.358 66.5773 107.362 65.6009C107.362 64.6285 108.065 64.2262 108.917 64.7183Z" fill="#A4ABAD"/>
<path d="M107.784 64.9878C108.022 64.8511 108.351 64.8667 108.714 65.0776C108.913 65.1948 109.105 65.3549 109.273 65.5502C109.476 65.7806 109.648 66.054 109.777 66.343C109.922 66.6711 110.007 67.0147 110.004 67.3311C110.004 67.7451 109.855 68.038 109.621 68.1747L108.843 68.6238C109.077 68.4871 109.226 68.1942 109.226 67.7802C109.226 67.4639 109.144 67.1202 108.999 66.7921C108.874 66.507 108.698 66.2297 108.495 65.9993C108.327 65.808 108.136 65.6439 107.937 65.5268C107.577 65.3198 107.245 65.3002 107.007 65.4369L107.784 64.9878Z" fill="#9A2A29"/>
<path d="M107.937 65.5267C108.655 65.9407 109.23 66.9522 109.226 67.7763C109.222 68.6004 108.644 68.9479 107.929 68.534C107.21 68.12 106.62 67.1007 106.624 66.2766C106.624 65.4486 107.218 65.1128 107.937 65.5267Z" fill="#D33333"/>
<path d="M103.048 61.3323C103.9 61.8244 104.58 63.0195 104.576 63.9958C104.572 64.9722 103.888 65.3823 103.037 64.8902C102.185 64.3981 101.489 63.1913 101.493 62.215C101.497 61.2425 102.2 60.8441 103.048 61.3323Z" fill="#A4ABAD"/>
<path d="M101.911 61.5979C102.15 61.4612 102.478 61.4768 102.841 61.6877C103.04 61.8049 103.232 61.965 103.4 62.1603C103.603 62.3907 103.775 62.6641 103.904 62.9531C104.049 63.2812 104.135 63.6248 104.131 63.9412C104.131 64.3552 103.982 64.6481 103.748 64.7848L102.97 65.2378C103.205 65.1011 103.353 64.8082 103.353 64.3942C103.353 64.0779 103.271 63.7342 103.126 63.4061C102.998 63.121 102.826 62.8438 102.622 62.6133C102.454 62.422 102.263 62.2579 102.064 62.1408C101.704 61.9338 101.372 61.9143 101.134 62.0509L101.911 61.5979Z" fill="#4D762D"/>
<path d="M102.064 62.1369C102.783 62.5509 103.357 63.5624 103.353 64.3864C103.349 65.2105 102.771 65.5581 102.052 65.1441C101.333 64.7301 100.743 63.7108 100.747 62.8867C100.751 62.0627 101.345 61.7229 102.064 62.1369Z" fill="#6EB02D"/>
<path d="M108.917 72.0293C109.769 72.5214 110.449 73.7165 110.445 74.6929C110.441 75.6692 109.757 76.0793 108.906 75.5872C108.058 75.0951 107.358 73.8883 107.362 72.912C107.362 71.9395 108.065 71.5412 108.917 72.0293Z" fill="#A4ABAD"/>
<path d="M107.784 72.2988C108.022 72.1621 108.351 72.1778 108.714 72.3848C108.913 72.5019 109.105 72.662 109.273 72.8573C109.476 73.0877 109.648 73.3611 109.777 73.6501C109.922 73.9782 110.007 74.3219 110.004 74.6382C110.004 75.0522 109.855 75.3451 109.621 75.4818L108.843 75.9348C109.077 75.7981 109.226 75.5052 109.226 75.0912C109.226 74.7749 109.144 74.4312 108.999 74.1032C108.874 73.8181 108.698 73.5408 108.495 73.3103C108.327 73.119 108.136 72.9549 107.937 72.8378C107.577 72.6308 107.245 72.6113 107.007 72.7519L107.784 72.2988Z" fill="#9A2A29"/>
<path d="M107.937 72.8378C108.655 73.2517 109.23 74.2633 109.226 75.0873C109.222 75.9114 108.644 76.259 107.929 75.845C107.21 75.431 106.62 74.4117 106.624 73.5876C106.624 72.7636 107.218 72.4238 107.937 72.8378Z" fill="#D33333"/>
<path d="M103.048 68.6434C103.9 69.1354 104.58 70.3305 104.576 71.3069C104.572 72.2833 103.888 72.6933 103.037 72.2012C102.185 71.7092 101.489 70.5024 101.493 69.526C101.497 68.5535 102.2 68.1552 103.048 68.6434Z" fill="#A4ABAD"/>
<path d="M101.911 68.9089C102.15 68.7722 102.478 68.7879 102.841 68.9949C103.04 69.112 103.232 69.2722 103.4 69.4674C103.603 69.6978 103.775 69.9712 103.904 70.2602C104.049 70.5883 104.135 70.932 104.131 71.2483C104.131 71.6623 103.982 71.9552 103.748 72.0919L102.97 72.541C103.205 72.4043 103.353 72.1114 103.353 71.6974C103.353 71.3811 103.271 71.0374 103.126 70.7094C102.998 70.4243 102.826 70.147 102.622 69.9166C102.454 69.7252 102.263 69.5612 102.064 69.444C101.704 69.237 101.372 69.2175 101.134 69.3581L101.911 68.9089Z" fill="#4D762D"/>
<path d="M102.064 69.4479C102.783 69.8619 103.357 70.8734 103.353 71.6975C103.349 72.5215 102.771 72.8691 102.052 72.4551C101.333 72.0412 100.743 71.0218 100.747 70.1978C100.751 69.3737 101.345 69.0339 102.064 69.4479Z" fill="#6EB02D"/>
<path d="M78.0054 58.3016L78.0406 46.9328L97.2106 57.9931L97.1754 69.3658L78.0054 58.3016Z" fill="#458F9C"/>
<path opacity="0.4" d="M78.5875 58.0087L78.6226 47.2687L78.0404 46.9328L78.0053 58.3016L97.1753 69.3658V68.737L78.5875 58.0087Z" fill="#458F9C"/>
<path d="M144.041 91.9161C143.819 94.1695 145.429 97.2744 147.64 98.8444C149.852 100.414 151.825 99.8598 152.048 97.6063C152.271 95.3529 150.661 92.248 148.449 90.678C146.237 89.1041 144.264 89.6587 144.041 91.9161Z" fill="white"/>
<path d="M147.066 91.588C147.906 91.7403 148.848 92.4472 149.555 93.404C149.789 93.1814 149.91 93.0721 150.145 92.8495C149.137 91.4865 147.828 90.5335 146.691 90.3304C146.839 90.8303 146.917 91.0842 147.066 91.588Z" fill="#CDCC20"/>
<path d="M149.391 93.1932C149.867 93.7868 150.239 94.4585 150.469 95.1811C150.848 95.2357 151.036 95.2631 151.415 95.3138C151.11 94.3609 150.606 93.4041 149.918 92.5527C149.707 92.8104 149.602 92.9393 149.391 93.1932Z" fill="#C23131"/>
<path d="M145.858 91.9044C146.194 91.5802 146.636 91.4904 147.164 91.6075C147.027 91.1076 146.96 90.8538 146.824 90.3539C146.089 90.186 145.464 90.3266 145.014 90.764C145.35 91.2209 145.518 91.4474 145.858 91.9044Z" fill="#4DAE44"/>
<path d="M147.761 95.4232C147.687 95.2435 147.691 95.0951 147.761 95.0209C147.464 94.2945 145.948 90.5569 146.019 90.5609C146.089 90.5648 147.769 94.3179 148.093 95.0443C148.234 95.1342 148.371 95.2904 148.445 95.47C148.535 95.677 148.512 95.845 148.406 95.9035C148.484 96.091 148.582 96.3409 148.699 96.626L148.504 96.6143C148.375 96.3292 148.265 96.0793 148.179 95.8918C148.023 95.8098 147.851 95.6302 147.761 95.4232Z" fill="#383534"/>
<path opacity="0.5" d="M143.678 91.6583C143.436 94.1187 145.19 97.4969 147.601 99.2114C150.012 100.926 152.161 100.321 152.407 97.8602C152.65 95.4036 150.895 92.0215 148.484 90.307C146.073 88.5925 143.924 89.1978 143.678 91.6583Z" fill="#BEDCE1"/>
<path d="M130.166 83.9059C129.943 86.1594 131.553 89.2642 133.765 90.8342C135.976 92.4042 137.95 91.8496 138.172 89.5962C138.395 87.3427 136.785 84.2379 134.574 82.6679C132.362 81.0979 130.389 81.6524 130.166 83.9059Z" fill="white"/>
<path d="M133.19 83.5817C134.031 83.734 134.972 84.4409 135.679 85.3978C135.914 85.1751 136.035 85.0658 136.27 84.8432C135.261 83.4802 133.952 82.5272 132.815 82.3242C132.964 82.8241 133.042 83.0779 133.19 83.5817Z" fill="#CDCC20"/>
<path d="M135.515 85.1869C135.992 85.7805 136.363 86.4523 136.594 87.1748C136.973 87.2294 137.16 87.2568 137.539 87.3076C137.235 86.3546 136.731 85.3978 136.043 84.5464C135.832 84.8041 135.726 84.933 135.515 85.1869Z" fill="#C23131"/>
<path d="M131.983 83.8981C132.319 83.5739 132.761 83.4841 133.288 83.6013C133.151 83.1014 133.085 82.8514 132.948 82.3476C132.214 82.1797 131.592 82.3203 131.139 82.7577C131.475 83.2146 131.643 83.4411 131.983 83.8981Z" fill="#4DAE44"/>
<path d="M133.89 87.4169C133.812 87.2373 133.82 87.0889 133.89 87.0147C133.593 86.2883 132.077 82.5507 132.147 82.5546C132.217 82.5585 133.898 86.3117 134.222 87.0381C134.363 87.1279 134.499 87.2842 134.574 87.4638C134.664 87.6708 134.64 87.8387 134.535 87.8973C134.613 88.0848 134.71 88.3347 134.828 88.6198L134.632 88.6081C134.503 88.323 134.394 88.0731 134.308 87.8856C134.148 87.8036 133.976 87.6239 133.89 87.4169Z" fill="#383534"/>
<path opacity="0.5" d="M129.803 83.6521C129.56 86.1086 131.315 89.4907 133.726 91.2052C136.137 92.9197 138.286 92.3144 138.532 89.8578C138.774 87.3974 137.02 84.0192 134.609 82.3047C132.198 80.5863 130.049 81.1916 129.803 83.6521Z" fill="#BEDCE1"/>
<path d="M109.859 46.5149C110.285 46.5149 110.629 46.1712 110.629 45.7455V28.1748C110.629 26.8314 111.356 25.5777 112.516 24.906L136.52 11.0533C136.903 10.8346 137.246 10.983 137.375 11.0494C137.508 11.1236 137.805 11.3423 137.805 11.7914V14.5643C137.805 14.99 138.149 15.3337 138.575 15.3337C139.001 15.3337 139.345 14.99 139.345 14.5643V11.7914C139.345 10.9244 138.891 10.1472 138.145 9.71368C137.391 9.28798 136.5 9.28408 135.746 9.71759L111.746 23.5703C110.105 24.5154 109.085 26.2807 109.085 28.1748V45.7455C109.089 46.1712 109.433 46.5149 109.859 46.5149Z" fill="#944342"/>
<path d="M152.036 70.8538C152.462 70.8538 152.806 70.5102 152.806 70.0845V52.5177C152.806 51.1703 153.529 49.9205 154.693 49.2488L178.701 35.3922C179.099 35.1579 179.431 35.3141 179.556 35.3922C179.685 35.4664 179.982 35.689 179.982 36.1342V38.9071C179.982 39.3328 180.326 39.6765 180.752 39.6765C181.178 39.6765 181.522 39.3328 181.522 38.9071V36.1342C181.522 35.2672 181.072 34.49 180.326 34.0565C179.564 33.623 178.669 33.6269 177.931 34.0565L153.923 47.9131C152.282 48.8582 151.262 50.6235 151.262 52.5177V70.0845C151.266 70.5063 151.61 70.8538 152.036 70.8538Z" fill="#944342"/>
<path d="M212.574 95.2669C212.887 95.0873 213.164 94.7631 213.321 94.4077C213.477 94.0484 213.477 93.7242 213.321 93.5446L208.851 88.3855C208.694 88.2058 208.417 88.2058 208.104 88.3855C207.792 88.5651 207.514 88.8893 207.358 89.2486L202.888 99.5707C202.731 99.93 202.731 100.254 202.888 100.434C203.044 100.613 203.322 100.613 203.634 100.434L212.574 95.2669Z" fill="#363633"/>
<path d="M212.93 94.0796L208.46 88.9205C208.366 88.8112 208.128 88.9478 208.034 89.1666L203.564 99.4887C203.47 99.7074 203.587 99.8441 203.775 99.7347L212.719 94.5678C212.907 94.4585 213.028 94.1851 212.93 94.0796Z" fill="#D6A828"/>
<path d="M208.636 94.5209C208.741 94.4585 208.831 94.3257 208.839 94.2163L209.085 91.0763C209.179 89.9672 207.585 90.9982 207.671 91.8926L207.917 94.7475C207.924 94.849 208.014 94.8802 208.12 94.8178L208.636 94.5209ZM208.374 95.3411C208.702 95.1497 208.972 95.263 208.972 95.5949C208.972 95.923 208.706 96.3448 208.374 96.5362C208.046 96.7275 207.776 96.6143 207.776 96.2823C207.78 95.9503 208.046 95.5286 208.374 95.3411Z" fill="#363633"/>
<path d="M214.071 151.416V132.138L202.771 138.661V157.938L214.071 151.416Z" fill="#363633"/>
<path d="M203.255 157.176L213.586 151.213V132.9L203.255 138.864V157.176Z" fill="#D6A828"/>
<path d="M206.494 139.789L210.5 137.477V137.024L206.494 139.336V139.789ZM204.818 143.023L212.176 138.778V139.231L204.818 143.476V143.023ZM204.818 144.8L212.176 140.555V140.102L204.818 144.347V144.8ZM204.818 146.124L212.176 141.879V141.426L204.818 145.671V146.124ZM204.818 147.444L212.176 143.199V142.746L204.818 146.991V147.444ZM204.818 148.768L212.176 144.523V144.07L204.818 148.315V148.768ZM204.818 150.092L212.176 145.843V145.39L204.818 149.635V150.092ZM204.818 151.412L212.176 147.167V146.714L204.818 150.959V151.412ZM204.818 152.736L212.176 148.491V148.038L204.818 152.283V152.736ZM204.818 154.056L212.176 149.811V149.358L204.818 153.603V154.056Z" fill="#363633"/>
</g>
<defs>
<filter id="filter0_d_306_858" x="0" y="0" width="260" height="313" filterUnits="userSpaceOnUse" color-interpolation-filters="sRGB">
<feFlood flood-opacity="0" result="BackgroundImageFix"/>
<feColorMatrix in="SourceAlpha" type="matrix" values="0 0 0 0 0 0 0 0 0 0 0 0 0 0 0 0 0 0 127 0" result="hardAlpha"/>
<feOffset dy="6"/>
<feGaussianBlur stdDeviation="5"/>
<feComposite in2="hardAlpha" operator="out"/>
<feColorMatrix type="matrix" values="0 0 0 0 0 0 0 0 0 0 0 0 0 0 0 0 0 0 0.25 0"/>
<feBlend mode="normal" in2="BackgroundImageFix" result="effect1_dropShadow_306_858"/>
<feBlend mode="normal" in="SourceGraphic" in2="effect1_dropShadow_306_858" result="shape"/>
</filter>
<linearGradient id="paint0_linear_306_858" x1="192.649" y1="69.0235" x2="115.396" y2="202.898" gradientUnits="userSpaceOnUse">
<stop offset="0.8325" stop-color="#BAC3C6"/>
<stop offset="0.8768" stop-color="#A8B2B4"/>
</linearGradient>
<linearGradient id="paint1_linear_306_858" x1="218.236" y1="39.6383" x2="108.71" y2="39.6383" gradientUnits="userSpaceOnUse">
<stop stop-color="#DCE2E4"/>
<stop offset="1" stop-color="#E7EDEF"/>
</linearGradient>
<linearGradient id="paint2_linear_306_858" x1="240.534" y1="146.483" x2="50.3471" y2="146.483" gradientUnits="userSpaceOnUse">
<stop stop-color="#DCE2E4"/>
<stop offset="1" stop-color="#E7EDEF"/>
</linearGradient>
<linearGradient id="paint3_linear_306_858" x1="226.681" y1="230.174" x2="215.918" y2="211.307" gradientUnits="userSpaceOnUse">
<stop stop-color="#312F2E"/>
<stop offset="1" stop-color="#4B4947"/>
</linearGradient>
<linearGradient id="paint4_linear_306_858" x1="202.961" y1="168.165" x2="12.774" y2="168.165" gradientUnits="userSpaceOnUse">
<stop stop-color="#DCE2E4"/>
<stop offset="1" stop-color="#E7EDEF"/>
</linearGradient>
<linearGradient id="paint5_linear_306_858" x1="103.347" y1="137.414" x2="91.1453" y2="137.414" gradientUnits="userSpaceOnUse">
<stop stop-color="#311515"/>
<stop offset="1" stop-color="#351616"/>
</linearGradient>
<linearGradient id="paint6_linear_306_858" x1="103.639" y1="131.499" x2="94.0691" y2="131.499" gradientUnits="userSpaceOnUse">
<stop stop-color="#0A0F0D"/>
<stop offset="1" stop-color="#1D2E1D"/>
</linearGradient>
<radialGradient id="paint7_radial_306_858" cx="0" cy="0" r="1" gradientUnits="userSpaceOnUse" gradientTransform="translate(95.5381 124.81) rotate(180) scale(10.6765 10.6711)">
<stop stop-color="#426C45"/>
<stop offset="0.3589" stop-color="#273E33"/>
<stop offset="0.6593" stop-color="#141E1D"/>
<stop offset="0.881" stop-color="#050909"/>
<stop offset="1" stop-color="#020203"/>
</radialGradient>
<linearGradient id="paint8_linear_306_858" x1="103.347" y1="137.414" x2="91.1453" y2="137.414" gradientUnits="userSpaceOnUse">
<stop stop-color="#311515"/>
<stop offset="1" stop-color="#351616"/>
</linearGradient>
<linearGradient id="paint9_linear_306_858" x1="99.7629" y1="115.661" x2="97.488" y2="115.661" gradientUnits="userSpaceOnUse">
<stop stop-color="#020203"/>
<stop offset="1" stop-color="#454D39"/>
</linearGradient>
<linearGradient id="paint10_linear_306_858" x1="97.7239" y1="137.585" x2="94.8662" y2="137.585" gradientUnits="userSpaceOnUse">
<stop stop-color="#020203"/>
<stop offset="1" stop-color="#454D39"/>
</linearGradient>
<linearGradient id="paint11_linear_306_858" x1="123.553" y1="149.074" x2="111.351" y2="149.074" gradientUnits="userSpaceOnUse">
<stop stop-color="#311515"/>
<stop offset="1" stop-color="#351616"/>
</linearGradient>
<linearGradient id="paint12_linear_306_858" x1="123.845" y1="143.159" x2="114.275" y2="143.159" gradientUnits="userSpaceOnUse">
<stop stop-color="#0A0F0D"/>
<stop offset="1" stop-color="#1D2E1D"/>
</linearGradient>
<radialGradient id="paint13_radial_306_858" cx="0" cy="0" r="1" gradientUnits="userSpaceOnUse" gradientTransform="translate(115.744 136.47) rotate(180) scale(10.6766 10.6711)">
<stop stop-color="#426C45"/>
<stop offset="0.3589" stop-color="#273E33"/>
<stop offset="0.6593" stop-color="#141E1D"/>
<stop offset="0.881" stop-color="#050909"/>
<stop offset="1" stop-color="#020203"/>
</radialGradient>
<linearGradient id="paint14_linear_306_858" x1="123.553" y1="149.074" x2="111.351" y2="149.074" gradientUnits="userSpaceOnUse">
<stop stop-color="#311515"/>
<stop offset="1" stop-color="#351616"/>
</linearGradient>
<linearGradient id="paint15_linear_306_858" x1="119.968" y1="127.321" x2="117.694" y2="127.321" gradientUnits="userSpaceOnUse">
<stop stop-color="#020203"/>
<stop offset="1" stop-color="#454D39"/>
</linearGradient>
<linearGradient id="paint16_linear_306_858" x1="117.93" y1="149.245" x2="115.072" y2="149.245" gradientUnits="userSpaceOnUse">
<stop stop-color="#020203"/>
<stop offset="1" stop-color="#454D39"/>
</linearGradient>
<linearGradient id="paint17_linear_306_858" x1="61.5216" y1="113.278" x2="49.3191" y2="113.278" gradientUnits="userSpaceOnUse">
<stop stop-color="#311515"/>
<stop offset="1" stop-color="#351616"/>
</linearGradient>
<linearGradient id="paint18_linear_306_858" x1="61.8132" y1="107.363" x2="52.2433" y2="107.363" gradientUnits="userSpaceOnUse">
<stop stop-color="#0A0F0D"/>
<stop offset="1" stop-color="#1D2E1D"/>
</linearGradient>
<radialGradient id="paint19_radial_306_858" cx="0" cy="0" r="1" gradientUnits="userSpaceOnUse" gradientTransform="translate(53.7123 100.674) rotate(180) scale(10.6765 10.6711)">
<stop stop-color="#426C45"/>
<stop offset="0.3589" stop-color="#273E33"/>
<stop offset="0.6593" stop-color="#141E1D"/>
<stop offset="0.881" stop-color="#050909"/>
<stop offset="1" stop-color="#020203"/>
</radialGradient>
<linearGradient id="paint20_linear_306_858" x1="61.5216" y1="113.278" x2="49.3191" y2="113.278" gradientUnits="userSpaceOnUse">
<stop stop-color="#311515"/>
<stop offset="1" stop-color="#351616"/>
</linearGradient>
<linearGradient id="paint21_linear_306_858" x1="57.9367" y1="91.5251" x2="55.6619" y2="91.5251" gradientUnits="userSpaceOnUse">
<stop stop-color="#020203"/>
<stop offset="1" stop-color="#454D39"/>
</linearGradient>
<linearGradient id="paint22_linear_306_858" x1="55.8984" y1="113.449" x2="53.04" y2="113.449" gradientUnits="userSpaceOnUse">
<stop stop-color="#020203"/>
<stop offset="1" stop-color="#454D39"/>
</linearGradient>
<linearGradient id="paint23_linear_306_858" x1="81.8605" y1="125.015" x2="69.6584" y2="125.015" gradientUnits="userSpaceOnUse">
<stop stop-color="#311515"/>
<stop offset="1" stop-color="#351616"/>
</linearGradient>
<linearGradient id="paint24_linear_306_858" x1="82.1521" y1="119.1" x2="72.5825" y2="119.1" gradientUnits="userSpaceOnUse">
<stop stop-color="#0A0F0D"/>
<stop offset="1" stop-color="#1D2E1D"/>
</linearGradient>
<radialGradient id="paint25_radial_306_858" cx="0" cy="0" r="1" gradientUnits="userSpaceOnUse" gradientTransform="translate(74.0515 112.411) rotate(180) scale(10.6765 10.6711)">
<stop stop-color="#426C45"/>
<stop offset="0.3589" stop-color="#273E33"/>
<stop offset="0.6593" stop-color="#141E1D"/>
<stop offset="0.881" stop-color="#050909"/>
<stop offset="1" stop-color="#020203"/>
</radialGradient>
<linearGradient id="paint26_linear_306_858" x1="81.8605" y1="125.015" x2="69.6584" y2="125.015" gradientUnits="userSpaceOnUse">
<stop stop-color="#311515"/>
<stop offset="1" stop-color="#351616"/>
</linearGradient>
<linearGradient id="paint27_linear_306_858" x1="78.2759" y1="103.262" x2="76.0011" y2="103.262" gradientUnits="userSpaceOnUse">
<stop stop-color="#020203"/>
<stop offset="1" stop-color="#454D39"/>
</linearGradient>
<linearGradient id="paint28_linear_306_858" x1="76.2376" y1="125.186" x2="73.3793" y2="125.186" gradientUnits="userSpaceOnUse">
<stop stop-color="#020203"/>
<stop offset="1" stop-color="#454D39"/>
</linearGradient>
<linearGradient id="paint29_linear_306_858" x1="143.785" y1="160.749" x2="131.583" y2="160.749" gradientUnits="userSpaceOnUse">
<stop stop-color="#311515"/>
<stop offset="1" stop-color="#351616"/>
</linearGradient>
<linearGradient id="paint30_linear_306_858" x1="144.077" y1="154.834" x2="134.507" y2="154.834" gradientUnits="userSpaceOnUse">
<stop stop-color="#0A0F0D"/>
<stop offset="1" stop-color="#1D2E1D"/>
</linearGradient>
<radialGradient id="paint31_radial_306_858" cx="0" cy="0" r="1" gradientUnits="userSpaceOnUse" gradientTransform="translate(135.976 148.145) rotate(180) scale(10.6765 10.6711)">
<stop stop-color="#426C45"/>
<stop offset="0.3589" stop-color="#273E33"/>
<stop offset="0.6593" stop-color="#141E1D"/>
<stop offset="0.881" stop-color="#050909"/>
<stop offset="1" stop-color="#020203"/>
</radialGradient>
<linearGradient id="paint32_linear_306_858" x1="143.785" y1="160.749" x2="131.583" y2="160.749" gradientUnits="userSpaceOnUse">
<stop stop-color="#311515"/>
<stop offset="1" stop-color="#351616"/>
</linearGradient>
<linearGradient id="paint33_linear_306_858" x1="140.201" y1="138.996" x2="137.926" y2="138.996" gradientUnits="userSpaceOnUse">
<stop stop-color="#020203"/>
<stop offset="1" stop-color="#454D39"/>
</linearGradient>
<linearGradient id="paint34_linear_306_858" x1="138.162" y1="160.92" x2="135.304" y2="160.92" gradientUnits="userSpaceOnUse">
<stop stop-color="#020203"/>
<stop offset="1" stop-color="#454D39"/>
</linearGradient>
<linearGradient id="paint35_linear_306_858" x1="164.209" y1="166.451" x2="154.639" y2="166.451" gradientUnits="userSpaceOnUse">
<stop stop-color="#0A0F0D"/>
<stop offset="1" stop-color="#1D2E1D"/>
</linearGradient>
<radialGradient id="paint36_radial_306_858" cx="0" cy="0" r="1" gradientUnits="userSpaceOnUse" gradientTransform="translate(156.108 159.762) rotate(180) scale(10.6765 10.6711)">
<stop stop-color="#426C45"/>
<stop offset="0.3589" stop-color="#273E33"/>
<stop offset="0.6593" stop-color="#141E1D"/>
<stop offset="0.881" stop-color="#050909"/>
<stop offset="1" stop-color="#020203"/>
</radialGradient>
<linearGradient id="paint37_linear_306_858" x1="160.332" y1="150.613" x2="158.057" y2="150.613" gradientUnits="userSpaceOnUse">
<stop stop-color="#020203"/>
<stop offset="1" stop-color="#454D39"/>
</linearGradient>
<linearGradient id="paint38_linear_306_858" x1="158.294" y1="172.537" x2="155.436" y2="172.537" gradientUnits="userSpaceOnUse">
<stop stop-color="#020203"/>
<stop offset="1" stop-color="#454D39"/>
</linearGradient>
<linearGradient id="paint39_linear_306_858" x1="184.448" y1="178.13" x2="174.878" y2="178.13" gradientUnits="userSpaceOnUse">
<stop stop-color="#0A0F0D"/>
<stop offset="1" stop-color="#1D2E1D"/>
</linearGradient>
<radialGradient id="paint40_radial_306_858" cx="0" cy="0" r="1" gradientUnits="userSpaceOnUse" gradientTransform="translate(176.347 171.441) rotate(180) scale(10.6765 10.6711)">
<stop stop-color="#426C45"/>
<stop offset="0.3589" stop-color="#273E33"/>
<stop offset="0.6593" stop-color="#141E1D"/>
<stop offset="0.881" stop-color="#050909"/>
<stop offset="1" stop-color="#020203"/>
</radialGradient>
<linearGradient id="paint41_linear_306_858" x1="180.571" y1="162.292" x2="178.297" y2="162.292" gradientUnits="userSpaceOnUse">
<stop stop-color="#020203"/>
<stop offset="1" stop-color="#454D39"/>
</linearGradient>
<linearGradient id="paint42_linear_306_858" x1="178.532" y1="184.216" x2="175.675" y2="184.216" gradientUnits="userSpaceOnUse">
<stop stop-color="#020203"/>
<stop offset="1" stop-color="#454D39"/>
</linearGradient>
<linearGradient id="paint43_linear_306_858" x1="204.687" y1="189.809" x2="195.117" y2="189.809" gradientUnits="userSpaceOnUse">
<stop stop-color="#0A0F0D"/>
<stop offset="1" stop-color="#1D2E1D"/>
</linearGradient>
<radialGradient id="paint44_radial_306_858" cx="0" cy="0" r="1" gradientUnits="userSpaceOnUse" gradientTransform="translate(196.586 183.121) rotate(180) scale(10.6765 10.6711)">
<stop stop-color="#426C45"/>
<stop offset="0.3589" stop-color="#273E33"/>
<stop offset="0.6593" stop-color="#141E1D"/>
<stop offset="0.881" stop-color="#050909"/>
<stop offset="1" stop-color="#020203"/>
</radialGradient>
<linearGradient id="paint45_linear_306_858" x1="200.81" y1="173.971" x2="198.536" y2="173.971" gradientUnits="userSpaceOnUse">
<stop stop-color="#020203"/>
<stop offset="1" stop-color="#454D39"/>
</linearGradient>
<linearGradient id="paint46_linear_306_858" x1="198.772" y1="195.895" x2="195.914" y2="195.895" gradientUnits="userSpaceOnUse">
<stop stop-color="#020203"/>
<stop offset="1" stop-color="#454D39"/>
</linearGradient>
<linearGradient id="paint47_linear_306_858" x1="97.7671" y1="111.197" x2="99.7408" y2="111.197" gradientUnits="userSpaceOnUse">
<stop stop-color="#E1EAED"/>
<stop offset="1" stop-color="#D3DEE0"/>
</linearGradient>
<linearGradient id="paint48_linear_306_858" x1="94.7713" y1="107.37" x2="102.737" y2="107.37" gradientUnits="userSpaceOnUse">
<stop stop-color="#3D3A39"/>
<stop offset="1" stop-color="#312F2E"/>
</linearGradient>
<linearGradient id="paint49_linear_306_858" x1="96.0376" y1="97.9388" x2="101.47" y2="97.9388" gradientUnits="userSpaceOnUse">
<stop stop-color="#E1EAED"/>
<stop offset="1" stop-color="#D3DEE0"/>
</linearGradient>
<linearGradient id="paint50_linear_306_858" x1="94.7713" y1="95.7285" x2="102.737" y2="95.7285" gradientUnits="userSpaceOnUse">
<stop stop-color="#3D3A39"/>
<stop offset="1" stop-color="#312F2E"/>
</linearGradient>
<linearGradient id="paint51_linear_306_858" x1="94.1422" y1="94.4161" x2="103.366" y2="94.4161" gradientUnits="userSpaceOnUse">
<stop stop-color="#3D3A39"/>
<stop offset="1" stop-color="#312F2E"/>
</linearGradient>
<linearGradient id="paint52_linear_306_858" x1="94.9267" y1="68.2132" x2="102.581" y2="68.2132" gradientUnits="userSpaceOnUse">
<stop stop-color="#3D3A39"/>
<stop offset="1" stop-color="#312F2E"/>
</linearGradient>
<linearGradient id="paint53_linear_306_858" x1="117.976" y1="122.859" x2="119.95" y2="122.859" gradientUnits="userSpaceOnUse">
<stop stop-color="#E1EAED"/>
<stop offset="1" stop-color="#D3DEE0"/>
</linearGradient>
<linearGradient id="paint54_linear_306_858" x1="114.98" y1="119.032" x2="122.946" y2="119.032" gradientUnits="userSpaceOnUse">
<stop stop-color="#3D3A39"/>
<stop offset="1" stop-color="#312F2E"/>
</linearGradient>
<linearGradient id="paint55_linear_306_858" x1="116.247" y1="109.601" x2="121.679" y2="109.601" gradientUnits="userSpaceOnUse">
<stop stop-color="#E1EAED"/>
<stop offset="1" stop-color="#D3DEE0"/>
</linearGradient>
<linearGradient id="paint56_linear_306_858" x1="114.98" y1="107.39" x2="122.946" y2="107.39" gradientUnits="userSpaceOnUse">
<stop stop-color="#3D3A39"/>
<stop offset="1" stop-color="#312F2E"/>
</linearGradient>
<linearGradient id="paint57_linear_306_858" x1="114.351" y1="106.078" x2="123.575" y2="106.078" gradientUnits="userSpaceOnUse">
<stop stop-color="#3D3A39"/>
<stop offset="1" stop-color="#312F2E"/>
</linearGradient>
<linearGradient id="paint58_linear_306_858" x1="115.136" y1="79.8749" x2="122.79" y2="79.8749" gradientUnits="userSpaceOnUse">
<stop stop-color="#3D3A39"/>
<stop offset="1" stop-color="#312F2E"/>
</linearGradient>
<linearGradient id="paint59_linear_306_858" x1="138.185" y1="134.521" x2="140.159" y2="134.521" gradientUnits="userSpaceOnUse">
<stop stop-color="#E1EAED"/>
<stop offset="1" stop-color="#D3DEE0"/>
</linearGradient>
<linearGradient id="paint60_linear_306_858" x1="135.19" y1="130.693" x2="143.155" y2="130.693" gradientUnits="userSpaceOnUse">
<stop stop-color="#3D3A39"/>
<stop offset="1" stop-color="#312F2E"/>
</linearGradient>
<linearGradient id="paint61_linear_306_858" x1="136.456" y1="121.262" x2="141.888" y2="121.262" gradientUnits="userSpaceOnUse">
<stop stop-color="#E1EAED"/>
<stop offset="1" stop-color="#D3DEE0"/>
</linearGradient>
<linearGradient id="paint62_linear_306_858" x1="135.19" y1="119.052" x2="143.155" y2="119.052" gradientUnits="userSpaceOnUse">
<stop stop-color="#3D3A39"/>
<stop offset="1" stop-color="#312F2E"/>
</linearGradient>
<linearGradient id="paint63_linear_306_858" x1="134.56" y1="117.74" x2="143.784" y2="117.74" gradientUnits="userSpaceOnUse">
<stop stop-color="#3D3A39"/>
<stop offset="1" stop-color="#312F2E"/>
</linearGradient>
<linearGradient id="paint64_linear_306_858" x1="135.345" y1="91.5368" x2="143" y2="91.5368" gradientUnits="userSpaceOnUse">
<stop stop-color="#3D3A39"/>
<stop offset="1" stop-color="#312F2E"/>
</linearGradient>
<linearGradient id="paint65_linear_306_858" x1="158.394" y1="146.182" x2="160.368" y2="146.182" gradientUnits="userSpaceOnUse">
<stop stop-color="#E1EAED"/>
<stop offset="1" stop-color="#D3DEE0"/>
</linearGradient>
<linearGradient id="paint66_linear_306_858" x1="155.399" y1="142.355" x2="163.364" y2="142.355" gradientUnits="userSpaceOnUse">
<stop stop-color="#3D3A39"/>
<stop offset="1" stop-color="#312F2E"/>
</linearGradient>
<linearGradient id="paint67_linear_306_858" x1="156.665" y1="132.924" x2="162.098" y2="132.924" gradientUnits="userSpaceOnUse">
<stop stop-color="#E1EAED"/>
<stop offset="1" stop-color="#D3DEE0"/>
</linearGradient>
<linearGradient id="paint68_linear_306_858" x1="155.399" y1="130.714" x2="163.364" y2="130.714" gradientUnits="userSpaceOnUse">
<stop stop-color="#3D3A39"/>
<stop offset="1" stop-color="#312F2E"/>
</linearGradient>
<linearGradient id="paint69_linear_306_858" x1="154.769" y1="129.401" x2="163.993" y2="129.401" gradientUnits="userSpaceOnUse">
<stop stop-color="#3D3A39"/>
<stop offset="1" stop-color="#312F2E"/>
</linearGradient>
<linearGradient id="paint70_linear_306_858" x1="155.554" y1="103.199" x2="163.209" y2="103.199" gradientUnits="userSpaceOnUse">
<stop stop-color="#3D3A39"/>
<stop offset="1" stop-color="#312F2E"/>
</linearGradient>
<linearGradient id="paint71_linear_306_858" x1="164.541" y1="64.5804" x2="75.9593" y2="64.5804" gradientUnits="userSpaceOnUse">
<stop stop-color="#DCE2E4"/>
<stop offset="1" stop-color="#E7EDEF"/>
</linearGradient>
<linearGradient id="paint72_linear_306_858" x1="218.236" y1="49.4882" x2="74.5711" y2="49.4882" gradientUnits="userSpaceOnUse">
<stop stop-color="#DCE2E4"/>
<stop offset="1" stop-color="#E7EDEF"/>
</linearGradient>
<linearGradient id="paint73_linear_306_858" x1="155.558" y1="27.7958" x2="117.593" y2="27.7958" gradientUnits="userSpaceOnUse">
<stop stop-color="#312F2E"/>
<stop offset="1" stop-color="#3D3A39"/>
</linearGradient>
<linearGradient id="paint74_linear_306_858" x1="197.986" y1="52.2795" x2="160.022" y2="52.2795" gradientUnits="userSpaceOnUse">
<stop stop-color="#312F2E"/>
<stop offset="1" stop-color="#3D3A39"/>
</linearGradient>
<clipPath id="clip0_306_858">
<rect width="240" height="293" fill="white" transform="matrix(-1 0 0 1 250 4)"/>
</clipPath>
</defs>
</svg>
